# This file uses centimeters as units for non-parametric coordinates.

mtllib Brazier.mtl
g default
v 6.413431 1.053917 -3.199098
v 6.286103 1.053917 -3.358762
v 6.102109 1.053917 -3.447369
v 5.897891 1.053917 -3.447369
v 5.713897 1.053917 -3.358762
v 5.586569 1.053917 -3.199098
v 5.541126 1.053917 -3.000000
v 5.586569 1.053917 -2.800902
v 5.713897 1.053917 -2.641238
v 5.897891 1.053917 -2.552631
v 6.102109 1.053917 -2.552631
v 6.286103 1.053917 -2.641238
v 6.413431 1.053917 -2.800902
v 6.458874 1.053917 -3.000000
v 6.855778 1.345868 -3.412121
v 6.592217 1.345868 -3.742616
v 6.211360 1.345868 -3.926028
v 5.788640 1.345868 -3.926028
v 5.407784 1.345868 -3.742617
v 5.144222 1.345868 -3.412121
v 5.050158 1.345868 -3.000000
v 5.144222 1.345868 -2.587879
v 5.407783 1.345868 -2.257384
v 5.788640 1.345868 -2.073972
v 6.211360 1.345868 -2.073972
v 6.592217 1.345868 -2.257383
v 6.855778 1.345868 -2.587879
v 6.949842 1.345868 -3.000000
v 6.619749 1.442995 -3.298455
v 6.428880 1.442995 -3.537798
v 6.153066 1.442995 -3.670623
v 5.846935 1.442995 -3.670623
v 5.571121 1.442995 -3.537798
v 5.380251 1.442995 -3.298455
v 5.312130 1.442995 -3.000000
v 5.380251 1.442995 -2.701545
v 5.571120 1.442995 -2.462202
v 5.846934 1.442995 -2.329377
v 6.153065 1.442995 -2.329377
v 6.428880 1.442995 -2.462202
v 6.619749 1.442995 -2.701545
v 6.687870 1.442995 -3.000000
v 6.000000 1.249273 -3.000000
v 6.353639 0.620390 -3.170304
v 6.244726 0.620390 -3.306877
v 6.087342 0.620390 -3.382669
v 5.912658 0.620390 -3.382669
v 5.755274 0.620390 -3.306877
v 5.646361 0.620390 -3.170304
v 5.607490 0.620390 -3.000000
v 5.646361 0.620390 -2.829696
v 5.755274 0.620390 -2.693123
v 5.912658 0.620390 -2.617331
v 6.087342 0.620390 -2.617331
v 6.244726 0.620390 -2.693123
v 6.353639 0.620390 -2.829696
v 6.392510 0.620390 -3.000000
v 6.399855 0.000000 -3.192560
v 6.276709 0.000000 -3.346981
v 6.000000 0.000000 -3.000000
v 6.098756 0.000000 -3.432678
v 5.901244 0.000000 -3.432678
v 5.723292 0.000000 -3.346981
v 5.600145 0.000000 -3.192560
v 5.556195 0.000000 -3.000000
v 5.600145 0.000000 -2.807440
v 5.723291 0.000000 -2.653019
v 5.901244 0.000000 -2.567322
v 6.098756 0.000000 -2.567322
v 6.276708 0.000000 -2.653019
v 6.399855 0.000000 -2.807440
v 6.443805 0.000000 -3.000000
v 6.900969 1.571386 -3.433883
v 6.854596 1.594482 -3.411551
v 6.623490 1.571386 -3.781831
v 6.591399 1.594482 -3.741590
v 6.222521 1.571386 -3.974928
v 6.211068 1.594482 -3.924748
v 5.777479 1.571386 -3.974928
v 5.788932 1.594482 -3.924748
v 5.376511 1.571386 -3.781832
v 5.408602 1.594482 -3.741591
v 5.099031 1.571386 -3.433884
v 5.145404 1.594482 -3.411552
v 5.000000 1.571386 -3.000000
v 5.051470 1.594482 -3.000000
v 5.099031 1.571386 -2.566117
v 5.145404 1.594482 -2.588449
v 5.376510 1.571386 -2.218169
v 5.408601 1.594482 -2.258410
v 5.777479 1.571386 -2.025072
v 5.788932 1.594482 -2.075252
v 6.222521 1.571386 -2.025072
v 6.211068 1.594482 -2.075252
v 6.623490 1.571386 -2.218168
v 6.591399 1.594482 -2.258409
v 6.900969 1.571386 -2.566116
v 6.854596 1.594482 -2.588448
v 7.000000 1.571386 -3.000000
v 6.948530 1.594482 -3.000000
vt 0.204055 0.327023
vt 0.211273 0.381304
vt 0.077422 0.388972
vt 0.070778 0.322943
vt 0.221668 0.435279
vt 0.088428 0.453758
vt 0.235200 0.488699
vt 0.103503 0.517720
vt 0.251903 0.541305
vt 0.122717 0.581115
vt 0.271869 0.592770
vt 0.146471 0.644079
vt 0.295238 0.642636
vt 0.175560 0.706613
vt 0.322166 0.690232
vt 0.211310 0.768521
vt 0.352757 0.734532
vt 0.255787 0.829345
vt 0.386999 0.773878
vt 0.311943 0.888458
vt 0.424795 0.805232
vt 0.116485 0.024564
vt 0.203643 0.166695
vt 0.089115 0.108288
vt 0.199793 0.218956
vt 0.074598 0.184130
vt 0.200143 0.272745
vt 0.069309 0.255019
vt 0.994792 0.468347
vt 0.448250 0.285262
vt 0.897132 0.453891
vt 0.991393 0.424542
vt 0.969323 0.386550
vt 0.932956 0.361896
vt 0.889493 0.355463
vt 0.847542 0.368525
vt 0.815414 0.398494
vt 0.799471 0.439436
vt 0.802870 0.483241
vt 0.824939 0.521233
vt 0.861307 0.545887
vt 0.904770 0.552320
vt 0.946721 0.539258
vt 0.814547 0.276411
vt 0.777210 0.334087
vt 0.669530 0.223457
vt 0.718546 0.369852
vt 0.650173 0.376621
vt 0.585635 0.353054
vt 0.537713 0.303819
vt 0.515899 0.238667
vt 0.524513 0.170503
vt 0.561850 0.112826
vt 0.620515 0.077061
vt 0.688887 0.070292
vt 0.753426 0.093859
vt 0.801348 0.143094
vt 0.823162 0.208246
vt 0.307790 0.317521
vt 0.315399 0.363933
vt 0.325202 0.410358
vt 0.337324 0.456367
vt 0.351814 0.501559
vt 0.368645 0.545543
vt 0.387703 0.587922
vt 0.408755 0.628301
vt 0.431400 0.666322
vt 0.454995 0.701764
vt 0.478540 0.734786
vt 0.295090 0.183517
vt 0.298120 0.226742
vt 0.302152 0.271606
vt 0.017489 0.323135
vt 0.877514 0.298872
vt 0.889638 0.201163
vt 0.016386 0.250583
vt 0.024232 0.393414
vt 0.824195 0.381644
vt 0.035682 0.462201
vt 0.740244 0.433085
vt 0.051508 0.530068
vt 0.642286 0.443007
vt 0.071808 0.597420
vt 0.549725 0.409444
vt 0.097080 0.664533
vt 0.480893 0.339044
vt 0.128305 0.731516
vt 0.449422 0.245750
vt 0.167078 0.798161
vt 0.461547 0.148041
vt 0.215670 0.863629
vt 0.514865 0.065269
vt 0.276413 0.926360
vt 0.598817 0.013828
vt 0.346891 0.988816
vt 0.696774 0.003906
vt 0.038915 0.094618
vt 0.789335 0.037469
vt 0.022705 0.174810
vt 0.858168 0.107869
vt 0.383476 0.945547
vt 0.064838 0.004309
vt 0.003906 0.249603
vt 0.010407 0.172792
vt 0.026831 0.091959
vt 0.051723 0.003906
vt 0.335629 0.996094
vt 0.267189 0.934787
vt 0.205922 0.871382
vt 0.156538 0.804877
vt 0.117124 0.737176
vt 0.085427 0.669196
vt 0.059810 0.601145
vt 0.039262 0.532889
vt 0.023263 0.464128
vt 0.011711 0.394425
vt 0.004941 0.323181
vt 0.441846 0.242192
vt 0.978849 0.509288
vt 0.435750 0.198586
vt 0.428826 0.154524
vt 0.598819 0.679564
vt 0.419409 0.110189
vt 0.578490 0.640628
vt 0.291918 0.142363
vt 0.557922 0.603037
vt 0.538122 0.565758
vt 0.519700 0.528132
vt 0.503015 0.489796
vt 0.488258 0.450587
vt 0.475498 0.410471
vt 0.464698 0.369490
vt 0.455710 0.327724
vt 0.213583 0.118818
vn 0.676806 -0.668607 -0.308056
vn 0.476121 -0.668608 -0.571203
vn 0.463680 -0.859494 -0.215105
vn 0.324431 -0.859494 -0.394986
vn 0.181134 -0.668608 -0.721217
vn 0.120925 -0.859494 -0.496636
vn -0.149729 -0.668608 -0.728385
vn -0.106533 -0.859494 -0.499920
vn -0.450935 -0.668608 -0.591288
vn -0.312890 -0.859494 -0.404190
vn -0.662828 -0.668608 -0.337079
vn -0.457276 -0.859494 -0.228405
vn -0.743441 -0.668608 -0.016107
vn -0.511092 -0.859494 -0.007381
vn -0.676806 -0.668607 0.308055
vn -0.463681 -0.859494 0.215105
vn -0.476121 -0.668608 0.571203
vn -0.324431 -0.859494 0.394986
vn -0.181134 -0.668608 0.721217
vn -0.120924 -0.859494 0.496636
vn 0.149729 -0.668608 0.728385
vn 0.106533 -0.859494 0.499921
vn 0.450935 -0.668608 0.591288
vn 0.312890 -0.859494 0.404190
vn 0.662828 -0.668608 0.337079
vn 0.457276 -0.859494 0.228405
vn 0.743441 -0.668608 0.016107
vn 0.511092 -0.859494 0.007381
vn 0.000000 -1.000000 0.000000
vn 0.000000 -1.000000 0.000000
vn 0.000000 -1.000000 0.000000
vn 0.000000 -1.000000 0.000000
vn 0.000000 -1.000000 0.000000
vn 0.000000 -1.000000 0.000000
vn 0.000000 -1.000000 0.000000
vn 0.000000 -1.000000 0.000000
vn 0.000000 -1.000000 0.000000
vn 0.000000 -1.000000 0.000000
vn 0.000000 -1.000000 0.000000
vn 0.000000 -1.000000 0.000000
vn 0.000000 -1.000000 0.000000
vn 0.000000 -1.000000 0.000000
vn 0.000000 -1.000000 0.000000
vn -0.323927 0.932270 0.161070
vn -0.221962 0.932270 0.285665
vn 0.000000 1.000000 0.000000
vn -0.076035 0.932270 0.353681
vn 0.084951 0.932270 0.351646
vn 0.229112 0.932270 0.279964
vn 0.327894 0.932270 0.152831
vn 0.361733 0.932270 -0.004572
vn 0.323927 0.932271 -0.161070
vn 0.221962 0.932270 -0.285665
vn 0.076035 0.932270 -0.353681
vn -0.084951 0.932271 -0.351646
vn -0.229112 0.932270 -0.279964
vn -0.327894 0.932270 -0.152831
vn -0.361733 0.932270 0.004572
vn 0.623798 -0.015439 -0.781433
vn 0.901074 -0.015439 -0.433391
vn 0.222971 -0.015439 -0.974703
vn -0.222017 -0.015439 -0.974921
vn -0.623033 -0.015439 -0.782043
vn -0.900649 -0.015439 -0.434273
vn -0.999881 -0.015439 -0.000489
vn -0.901074 -0.015439 0.433391
vn -0.623798 -0.015439 0.781433
vn -0.222971 -0.015439 0.974703
vn 0.222017 -0.015439 0.974921
vn 0.623033 -0.015439 0.782043
vn 0.900649 -0.015439 0.434273
vn 0.999881 -0.015439 0.000489
vn 0.619547 0.082401 -0.780623
vn 0.896893 0.082401 -0.434504
vn 0.219493 0.082401 -0.972128
vn -0.224034 0.082401 -0.971092
vn -0.623188 0.082400 -0.777719
vn -0.898912 0.082401 -0.430310
vn -0.996597 0.082401 0.002328
vn -0.896893 0.082401 0.434504
vn -0.619547 0.082401 0.780623
vn -0.219493 0.082401 0.972128
vn 0.224034 0.082401 0.971092
vn 0.623188 0.082400 0.777719
vn 0.898912 0.082401 0.430310
vn 0.996597 0.082401 -0.002328
vn 0.902596 -0.017317 -0.430140
vn -0.298507 0.942161 0.152400
vn 0.999842 -0.017316 0.004078
vn -0.335069 0.942161 0.007791
vn -0.202822 0.942161 0.266825
vn 0.626580 -0.017316 -0.779165
vn -0.066965 0.942161 0.328402
vn 0.226463 -0.017316 -0.973866
vn 0.082155 0.942161 0.324935
vn -0.218509 -0.017316 -0.975681
vn 0.215003 0.942161 0.257110
vn -0.620202 -0.017316 -0.784251
vn 0.305267 0.942161 0.138363
vn -0.899057 -0.017315 -0.437490
vn 0.335070 0.942161 -0.007790
vn -0.999842 -0.017316 -0.004079
vn 0.298507 0.942161 -0.152400
vn -0.902596 -0.017317 0.430140
vn 0.202822 0.942161 -0.266825
vn -0.626580 -0.017316 0.779165
vn 0.066965 0.942161 -0.328402
vn -0.226463 -0.017316 0.973866
vn -0.082155 0.942162 -0.324934
vn 0.218509 -0.017316 0.975681
vn -0.215003 0.942162 -0.257110
vn 0.620202 -0.017316 0.784251
vn -0.305267 0.942161 -0.138362
vn 0.899056 -0.017316 0.437490
vn 0.881221 -0.217105 -0.419898
vn 0.611766 -0.217104 -0.760663
vn 0.221143 -0.217104 -0.950769
vn -0.213280 -0.217104 -0.952564
vn -0.605461 -0.217104 -0.765691
vn -0.877723 -0.217103 -0.427165
vn -0.976140 -0.217103 -0.004032
vn -0.881222 -0.217105 0.419898
vn -0.611766 -0.217104 0.760663
vn -0.221143 -0.217104 0.950769
vn 0.213280 -0.217104 0.952564
vn 0.605461 -0.217104 0.765691
vn 0.877722 -0.217105 0.427165
vn 0.976140 -0.217103 0.004032
s 1
g pCylinder1
usemtl initialShadingGroup
f 1/1/1 2/2/2 15/4/3
f 15/4/3 2/2/2 16/3/4
f 2/2/2 3/5/5 16/3/4
f 16/3/4 3/5/5 17/6/6
f 3/5/5 4/7/7 17/6/6
f 17/6/6 4/7/7 18/8/8
f 4/7/7 5/9/9 18/8/8
f 18/8/8 5/9/9 19/10/10
f 5/9/9 6/11/11 19/10/10
f 19/10/10 6/11/11 20/12/12
f 6/11/11 7/13/13 20/12/12
f 20/12/12 7/13/13 21/14/14
f 7/13/13 8/15/15 21/14/14
f 21/14/14 8/15/15 22/16/16
f 8/15/15 9/17/17 22/16/16
f 22/16/16 9/17/17 23/18/18
f 9/17/17 10/19/19 23/18/18
f 23/18/18 10/19/19 24/20/20
f 10/19/19 11/21/21 24/20/20
f 24/20/20 11/21/21 25/101/22
f 11/134/21 12/23/23 25/22/22
f 25/22/22 12/23/23 26/24/24
f 12/23/23 13/25/25 26/24/24
f 26/24/24 13/25/25 27/26/26
f 13/25/25 14/27/27 27/26/26
f 27/26/26 14/27/27 28/28/28
f 14/27/27 1/1/1 28/28/28
f 28/28/28 1/1/1 15/4/3
s 2
f 59/29/29 58/119/30 60/31/31
f 61/32/32 59/29/29 60/31/31
f 62/33/33 61/32/32 60/31/31
f 63/34/34 62/33/33 60/31/31
f 64/35/35 63/34/34 60/31/31
f 65/36/36 64/35/35 60/31/31
f 66/37/37 65/36/36 60/31/31
f 67/38/38 66/37/37 60/31/31
f 68/39/39 67/38/38 60/31/31
f 69/40/40 68/39/39 60/31/31
f 70/41/41 69/40/40 60/31/31
f 71/42/42 70/41/41 60/31/31
f 72/43/43 71/42/42 60/31/31
f 58/119/30 72/43/43 60/31/31
s 3
f 29/44/44 30/45/45 43/46/46
f 30/45/45 31/47/47 43/46/46
f 31/47/47 32/48/48 43/46/46
f 32/48/48 33/49/49 43/46/46
f 33/49/49 34/50/50 43/46/46
f 34/50/50 35/51/51 43/46/46
f 35/51/51 36/52/52 43/46/46
f 36/52/52 37/53/53 43/46/46
f 37/53/53 38/54/54 43/46/46
f 38/54/54 39/55/55 43/46/46
f 39/55/55 40/56/56 43/46/46
f 40/56/56 41/57/57 43/46/46
f 41/57/57 42/58/58 43/46/46
f 42/58/58 29/44/44 43/46/46
s 1
f 2/2/2 1/1/1 45/60/59
f 45/60/59 1/1/1 44/59/60
f 3/5/5 2/2/2 46/61/61
f 46/61/61 2/2/2 45/60/59
f 4/7/7 3/5/5 47/62/62
f 47/62/62 3/5/5 46/61/61
f 5/9/9 4/7/7 48/63/63
f 48/63/63 4/7/7 47/62/62
f 6/11/11 5/9/9 49/64/64
f 49/64/64 5/9/9 48/63/63
f 7/13/13 6/11/11 50/65/65
f 50/65/65 6/11/11 49/64/64
f 8/15/15 7/13/13 51/66/66
f 51/66/66 7/13/13 50/65/65
f 9/17/17 8/15/15 52/67/67
f 52/67/67 8/15/15 51/66/66
f 10/19/19 9/17/17 53/68/68
f 53/68/68 9/17/17 52/67/67
f 11/21/21 10/19/19 54/69/69
f 54/69/69 10/19/19 53/68/68
f 12/23/23 11/134/21 55/70/70
f 55/70/70 11/134/21 54/125/69
f 13/25/25 12/23/23 56/71/71
f 56/71/71 12/23/23 55/70/70
f 14/27/27 13/25/25 57/72/72
f 57/72/72 13/25/25 56/71/71
f 1/1/1 14/27/27 44/59/60
f 44/59/60 14/27/27 57/72/72
f 45/60/59 44/59/60 59/133/73
f 59/133/73 44/59/60 58/30/74
f 46/61/61 45/60/59 61/132/75
f 61/132/75 45/60/59 59/133/73
f 47/62/62 46/61/61 62/131/76
f 62/131/76 46/61/61 61/132/75
f 48/63/63 47/62/62 63/130/77
f 63/130/77 47/62/62 62/131/76
f 49/64/64 48/63/63 64/129/78
f 64/129/78 48/63/63 63/130/77
f 50/65/65 49/64/64 65/128/79
f 65/128/79 49/64/64 64/129/78
f 51/66/66 50/65/65 66/127/80
f 66/127/80 50/65/65 65/128/79
f 52/67/67 51/66/66 67/126/81
f 67/126/81 51/66/66 66/127/80
f 53/68/68 52/67/67 68/124/82
f 68/124/82 52/67/67 67/126/81
f 54/69/69 53/68/68 69/122/83
f 69/122/83 53/68/68 68/124/82
f 55/70/70 54/125/69 70/121/84
f 70/121/84 54/125/69 69/123/83
f 56/71/71 55/70/70 71/120/85
f 71/120/85 55/70/70 70/121/84
f 57/72/72 56/71/71 72/118/86
f 72/118/86 56/71/71 71/120/85
f 44/59/60 57/72/72 58/30/74
f 58/30/74 57/72/72 72/118/86
s 3
f 73/73/87 74/117/88 99/76/89
f 99/76/89 74/117/88 100/103/90
f 74/117/88 73/73/87 76/116/91
f 76/116/91 73/73/87 75/77/92
f 76/116/91 75/77/92 78/115/93
f 78/115/93 75/77/92 77/79/94
f 78/115/93 77/79/94 80/114/95
f 80/114/95 77/79/94 79/81/96
f 80/114/95 79/81/96 82/113/97
f 82/113/97 79/81/96 81/83/98
f 82/113/97 81/83/98 84/112/99
f 84/112/99 81/83/98 83/85/100
f 84/112/99 83/85/100 86/111/101
f 86/111/101 83/85/100 85/87/102
f 86/111/101 85/87/102 88/110/103
f 88/110/103 85/87/102 87/89/104
f 88/110/103 87/89/104 90/109/105
f 90/109/105 87/89/104 89/91/106
f 90/109/105 89/91/106 92/108/107
f 92/108/107 89/91/106 91/93/108
f 92/108/107 91/93/108 94/107/109
f 94/107/109 91/93/108 93/95/110
f 94/106/109 93/102/110 96/105/111
f 96/105/111 93/102/110 95/97/112
f 96/105/111 95/97/112 98/104/113
f 98/104/113 95/97/112 97/99/114
f 98/104/113 97/99/114 100/103/90
f 100/103/90 97/99/114 99/76/89
f 15/4/115 16/3/116 73/73/87
f 73/73/87 16/3/116 75/77/92
f 16/3/116 17/6/117 75/77/92
f 75/77/92 17/6/117 77/79/94
f 17/6/117 18/8/118 77/79/94
f 77/79/94 18/8/118 79/81/96
f 18/8/118 19/10/119 79/81/96
f 79/81/96 19/10/119 81/83/98
f 19/10/119 20/12/120 81/83/98
f 81/83/98 20/12/120 83/85/100
f 20/12/120 21/14/121 83/85/100
f 83/85/100 21/14/121 85/87/102
f 21/14/121 22/16/122 85/87/102
f 85/87/102 22/16/122 87/89/104
f 22/16/122 23/18/123 87/89/104
f 87/89/104 23/18/123 89/91/106
f 23/18/123 24/20/124 89/91/106
f 89/91/106 24/20/124 91/93/108
f 24/20/124 25/101/125 91/93/108
f 91/93/108 25/101/125 93/95/110
f 25/22/125 26/24/126 93/102/110
f 93/102/110 26/24/126 95/97/112
f 26/24/126 27/26/127 95/97/112
f 95/97/112 27/26/127 97/99/114
f 27/26/127 28/28/128 97/99/114
f 97/99/114 28/28/128 99/76/89
f 28/28/128 15/4/115 99/76/89
f 99/76/89 15/4/115 73/73/87
f 74/74/88 76/78/91 29/44/44
f 29/44/44 76/78/91 30/45/45
f 76/78/91 78/80/93 30/45/45
f 30/45/45 78/80/93 31/47/47
f 78/80/93 80/82/95 31/47/47
f 31/47/47 80/82/95 32/48/48
f 80/82/95 82/84/97 32/48/48
f 32/48/48 82/84/97 33/49/49
f 82/84/97 84/86/99 33/49/49
f 33/49/49 84/86/99 34/50/50
f 84/86/99 86/88/101 34/50/50
f 34/50/50 86/88/101 35/51/51
f 86/88/101 88/90/103 35/51/51
f 35/51/51 88/90/103 36/52/52
f 88/90/103 90/92/105 36/52/52
f 36/52/52 90/92/105 37/53/53
f 90/92/105 92/94/107 37/53/53
f 37/53/53 92/94/107 38/54/54
f 92/94/107 94/96/109 38/54/54
f 38/54/54 94/96/109 39/55/55
f 94/96/109 96/98/111 39/55/55
f 39/55/55 96/98/111 40/56/56
f 96/98/111 98/100/113 40/56/56
f 40/56/56 98/100/113 41/57/57
f 98/100/113 100/75/90 41/57/57
f 41/57/57 100/75/90 42/58/58
f 100/75/90 74/74/88 42/58/58
f 42/58/58 74/74/88 29/44/44
