# This file uses centimeters as units for non-parametric coordinates.

mtllib cubetri.mtl
g default
v -0.500000 -0.500000 0.500000
v 0.500000 -0.500000 0.500000
v -0.500000 0.500000 0.500000
v 0.500000 0.500000 0.500000
v -0.500000 0.500000 -0.500000
v 0.500000 0.500000 -0.500000
v -0.500000 -0.500000 -0.500000
v 0.500000 -0.500000 -0.500000
v -0.028953 2.612063 0.028953
v 0.028953 2.612063 0.028953
v 0.028953 2.612063 -0.028953
v -0.028953 2.612063 -0.028953
vt 0.229815 0.593496
vt 0.459630 0.593496
vt 0.229815 0.823311
vt 0.459630 0.823311
vt 0.770185 0.000000
vt 1.000000 0.000000
vt 0.770185 0.229815
vt 1.000000 0.229815
vt 0.770185 0.459630
vt 1.000000 0.459630
vt 0.689445 0.593496
vt 0.689445 0.823311
vt 0.000000 0.593496
vt 0.000000 0.823311
vt 0.209171 0.571112
vt 0.195013 0.566437
vt 0.501718 0.081864
vt 0.256552 -0.000000
vt 0.223732 0.593497
vt 0.222387 0.579090
vt 0.789251 0.516539
vt 0.691143 0.258706
vt 0.205882 0.588962
vt 0.180171 0.568067
vt 0.000000 0.027756
vn 0.000000 0.000000 1.000000
vn 0.000000 0.000000 1.000000
vn 0.000000 0.142576 0.989784
vn 0.000000 0.141693 0.989911
vn 0.000000 1.000000 0.000000
vn 0.000000 1.000000 0.000000
vn 0.000000 1.000000 0.000000
vn 0.000000 1.000000 0.000000
vn 0.000000 0.141693 -0.989911
vn 0.000000 0.142576 -0.989784
vn 0.000000 0.000000 -1.000000
vn 0.000000 0.000000 -1.000000
vn 0.000000 -1.000000 0.000000
vn 0.000000 -1.000000 0.000000
vn 0.000000 -1.000000 0.000000
vn 0.000000 -1.000000 0.000000
vn 1.000000 0.000000 0.000000
vn 1.000000 0.000000 0.000000
vn 0.989784 0.142576 0.000000
vn 0.989911 0.141693 0.000000
vn -1.000000 0.000000 0.000000
vn -1.000000 0.000000 0.000000
vn -0.989784 0.142576 0.000000
vn -0.989911 0.141693 0.000000
vn 0.000000 0.217679 0.976020
vn 0.000000 0.217679 0.976020
vn 0.976020 0.217679 0.000000
vn 0.976020 0.217679 0.000000
vn 0.000000 0.217679 -0.976020
vn 0.000000 0.217679 -0.976020
vn -0.976020 0.217679 0.000000
vn -0.976020 0.217679 0.000000
s 1
g pCube1
usemtl initialShadingGroup
f 1/1/1 2/2/2 3/3/3
f 3/3/3 2/2/2 4/4/4
s 2
f 9/19/5 10/23/6 12/20/7
f 12/20/7 10/23/6 11/15/8
s 3
f 5/5/9 6/6/10 7/7/11
f 7/7/11 6/6/10 8/8/12
s 4
f 7/7/13 8/8/14 1/9/15
f 1/9/15 8/8/14 2/10/16
s 5
f 2/2/17 8/11/18 4/4/19
f 4/4/19 8/11/18 6/12/20
s 6
f 7/13/21 1/1/22 5/14/23
f 5/14/23 1/1/22 3/3/24
s 1
f 10/16/25 9/24/26 4/18/4
f 3/25/3 4/18/4 9/24/26
s 5
f 11/15/27 10/16/28 6/17/20
f 4/18/19 6/17/20 10/16/28
s 3
f 12/20/29 11/15/30 5/22/9
f 6/17/10 5/22/9 11/15/30
s 6
f 9/19/31 12/20/32 3/21/24
f 5/22/23 3/21/24 12/20/32
