# This file uses centimeters as units for non-parametric coordinates.

mtllib Fern.mtl
g default
v -3.039986 -0.000000 9.855428
v -3.000000 -0.000000 10.000000
v -2.960014 -0.000000 10.144572
v -2.842146 0.218781 9.800710
v -2.802161 0.218781 9.945282
v -2.762175 0.218781 10.089854
v -2.576808 0.334167 9.727323
v -2.536822 0.334167 9.871895
v -2.496837 0.334167 10.016467
v -2.307678 0.334167 9.652887
v -2.267693 0.334167 9.797460
v -2.227707 0.334167 9.942032
v -2.850135 -0.000000 9.993643
v -3.000000 -0.000000 10.000000
v -3.149865 -0.000000 10.006357
v -2.841436 0.218781 10.198726
v -2.991301 0.218781 10.205083
v -3.141166 0.218781 10.211439
v -2.829769 0.334167 10.473779
v -2.979634 0.334167 10.480135
v -3.129500 0.334167 10.486492
v -2.817935 0.334167 10.752761
v -2.967801 0.334167 10.759118
v -3.117666 0.334167 10.765474
v -2.895514 -0.000000 10.052605
v -3.000000 -0.000000 10.000000
v -3.104486 -0.000000 9.947394
v -2.967501 0.250789 10.195589
v -3.071987 0.250789 10.142983
v -3.176474 0.250789 10.090378
v -3.064049 0.383056 10.387356
v -3.168535 0.383056 10.334750
v -3.273022 0.383056 10.282145
v -3.161977 0.383056 10.581862
v -3.266463 0.383056 10.529257
v -3.370949 0.383056 10.476652
v -3.074811 -0.000000 10.089934
v -3.000000 -0.000000 10.000000
v -2.925189 -0.000000 9.910067
v -3.197880 0.250789 9.987559
v -3.123069 0.250789 9.897626
v -3.048259 0.250789 9.807693
v -3.362938 0.383056 9.850257
v -3.288127 0.383056 9.760324
v -3.213316 0.383056 9.670390
v -3.530354 0.383056 9.710993
v -3.455544 0.383056 9.621059
v -3.380733 0.383056 9.531126
v -2.915607 -0.000000 9.918990
v -3.000000 -0.000000 10.000000
v -3.084393 -0.000000 10.081009
v -2.804750 0.250789 10.034478
v -2.889143 0.250789 10.115487
v -2.973536 0.250789 10.196496
v -2.656072 0.383056 10.189367
v -2.740465 0.383056 10.270376
v -2.824858 0.383056 10.351385
v -2.505268 0.383056 10.346470
v -2.589662 0.383056 10.427479
v -2.674055 0.383056 10.508488
v -3.028293 -0.000000 9.886492
v -3.000000 -0.000000 10.000000
v -2.971707 -0.000000 10.113508
v -2.872962 0.250789 9.847775
v -2.844670 0.250789 9.961283
v -2.816377 0.250789 10.074791
v -2.664637 0.383056 9.795847
v -2.636344 0.383056 9.909356
v -2.608051 0.383056 10.022864
v -2.453334 0.383056 9.743178
v -2.425041 0.383056 9.856687
v -2.396748 0.383056 9.970196
v -3.106622 -0.000000 9.951871
v -3.000000 -0.000000 10.000001
v -2.893378 -0.000000 10.048131
v -3.040758 0.250789 9.805964
v -2.934137 0.250789 9.854095
v -2.827515 0.250789 9.902225
v -2.952424 0.383056 9.610278
v -2.845802 0.383056 9.658408
v -2.739180 0.383056 9.706538
v -2.862827 0.383056 9.411796
v -2.756205 0.383056 9.459926
v -2.649584 0.383056 9.508056
v -3.022849 -0.000000 10.114729
v -3.000000 -0.000000 10.000000
v -2.977151 -0.000000 9.885272
v -3.179848 0.250789 10.083461
v -3.157000 0.250789 9.968733
v -3.134151 0.250789 9.854004
v -3.390413 0.383056 10.041526
v -3.367564 0.383056 9.926798
v -3.344716 0.383056 9.812069
v -3.603987 0.383056 9.998992
v -3.581138 0.383056 9.884263
v -3.558289 0.383056 9.769535
v -2.902146 -0.000000 10.113686
v -3.000000 -0.000000 10.000000
v -3.097854 -0.000000 9.886313
v -3.057719 0.218781 10.247594
v -3.155573 0.218781 10.133908
v -3.253428 0.218781 10.020222
v -3.266371 0.334167 10.427190
v -3.364225 0.334167 10.313503
v -3.462080 0.334167 10.199817
v -3.478004 0.334167 10.609351
v -3.575859 0.334167 10.495665
v -3.673713 0.334167 10.381978
v -3.049944 -0.000000 10.141441
v -3.000000 -0.000000 10.000000
v -2.950057 -0.000000 9.858559
v -3.243499 0.218781 10.073096
v -3.193555 0.218781 9.931655
v -3.143611 0.218781 9.790214
v -3.503090 0.334167 9.981434
v -3.453147 0.334167 9.839993
v -3.403203 0.334167 9.698551
v -3.766392 0.334167 9.888461
v -3.716448 0.334167 9.747020
v -3.666504 0.334167 9.605578
v -2.966177 -0.000000 9.853863
v -3.000000 -0.000000 9.999999
v -3.033823 -0.000000 10.146136
v -2.766196 0.218781 9.900147
v -2.800020 0.218781 10.046285
v -2.833842 0.218781 10.192421
v -2.497987 0.334167 9.962224
v -2.531810 0.334167 10.108360
v -2.565632 0.334167 10.254498
v -2.225944 0.334167 10.025187
v -2.259767 0.334167 10.171324
v -2.293590 0.334167 10.317461
v -3.150000 -0.000000 10.000000
v -3.000000 -0.000000 10.000000
v -2.850000 -0.000000 10.000000
v -3.150000 0.218781 9.794733
v -3.000000 0.218781 9.794733
v -2.850000 0.218781 9.794733
v -3.150000 0.334167 9.519433
v -3.000000 0.334167 9.519433
v -2.850000 0.334167 9.519433
v -3.150000 0.334167 9.240199
v -3.000000 0.334167 9.240199
v -2.850000 0.334167 9.240199
vt 0.000783 0.001992
vt 0.196446 0.001992
vt 0.196446 0.393317
vt 0.000783 0.393317
vt 0.392108 0.001992
vt 0.392108 0.393317
vt 0.196446 0.748789
vt 0.000783 0.748789
vt 0.392108 0.748789
vt 0.196446 0.998008
vt 0.000783 0.998008
vt 0.392108 0.998008
vt 0.000783 0.001992
vt 0.196446 0.001992
vt 0.196446 0.393317
vt 0.000783 0.393317
vt 0.392108 0.001992
vt 0.392108 0.393317
vt 0.196446 0.748789
vt 0.000783 0.748789
vt 0.392108 0.748789
vt 0.196446 0.998008
vt 0.000783 0.998008
vt 0.392108 0.998008
vt 0.000783 0.001992
vt 0.196446 0.001992
vt 0.196446 0.393317
vt 0.000783 0.393317
vt 0.392108 0.001992
vt 0.392108 0.393317
vt 0.196446 0.748789
vt 0.000783 0.748789
vt 0.392108 0.748789
vt 0.196446 0.998008
vt 0.000783 0.998008
vt 0.392108 0.998008
vt 0.000783 0.001992
vt 0.196446 0.001992
vt 0.196446 0.393317
vt 0.000783 0.393317
vt 0.392108 0.001992
vt 0.392108 0.393317
vt 0.196446 0.748789
vt 0.000783 0.748789
vt 0.392108 0.748789
vt 0.196446 0.998008
vt 0.000783 0.998008
vt 0.392108 0.998008
vt 0.000783 0.001992
vt 0.196446 0.001992
vt 0.196446 0.393317
vt 0.000783 0.393317
vt 0.392108 0.001992
vt 0.392108 0.393317
vt 0.196446 0.748789
vt 0.000783 0.748789
vt 0.392108 0.748789
vt 0.196446 0.998008
vt 0.000783 0.998008
vt 0.392108 0.998008
vt 0.000783 0.001992
vt 0.196446 0.001992
vt 0.196446 0.393317
vt 0.000783 0.393317
vt 0.392108 0.001992
vt 0.392108 0.393317
vt 0.196446 0.748789
vt 0.000783 0.748789
vt 0.392108 0.748789
vt 0.196446 0.998008
vt 0.000783 0.998008
vt 0.392108 0.998008
vt 0.000783 0.001992
vt 0.196446 0.001992
vt 0.196446 0.393317
vt 0.000783 0.393317
vt 0.392108 0.001992
vt 0.392108 0.393317
vt 0.196446 0.748789
vt 0.000783 0.748789
vt 0.392108 0.748789
vt 0.196446 0.998008
vt 0.000783 0.998008
vt 0.392108 0.998008
vt 0.000783 0.001992
vt 0.196446 0.001992
vt 0.196446 0.393317
vt 0.000783 0.393317
vt 0.392108 0.001992
vt 0.392108 0.393317
vt 0.196446 0.748789
vt 0.000783 0.748789
vt 0.392108 0.748789
vt 0.196446 0.998008
vt 0.000783 0.998008
vt 0.392108 0.998008
vt 0.000783 0.001992
vt 0.196446 0.001992
vt 0.196446 0.393317
vt 0.000783 0.393317
vt 0.392108 0.001992
vt 0.392108 0.393317
vt 0.196446 0.748789
vt 0.000783 0.748789
vt 0.392108 0.748789
vt 0.196446 0.998008
vt 0.000783 0.998008
vt 0.392108 0.998008
vt 0.000783 0.001992
vt 0.196446 0.001992
vt 0.196446 0.393317
vt 0.000783 0.393317
vt 0.392108 0.001992
vt 0.392108 0.393317
vt 0.196446 0.748789
vt 0.000783 0.748789
vt 0.392108 0.748789
vt 0.196446 0.998008
vt 0.000783 0.998008
vt 0.392108 0.998008
vt 0.000783 0.001992
vt 0.196446 0.001992
vt 0.196446 0.393317
vt 0.000783 0.393317
vt 0.392108 0.001992
vt 0.392108 0.393317
vt 0.196446 0.748789
vt 0.000783 0.748789
vt 0.392108 0.748789
vt 0.196446 0.998008
vt 0.000783 0.998008
vt 0.392108 0.998008
vt 0.000783 0.001992
vt 0.196446 0.001992
vt 0.196446 0.393317
vt 0.000783 0.393317
vt 0.392108 0.001992
vt 0.392108 0.393317
vt 0.196446 0.748789
vt 0.000783 0.748789
vt 0.392108 0.748789
vt 0.196446 0.998008
vt 0.000783 0.998008
vt 0.392108 0.998008
vn -0.702882 0.684225 0.194403
vn -0.702883 0.684224 0.194403
vn -0.550245 0.821018 0.152186
vn -0.550244 0.821018 0.152186
vn -0.702885 0.684223 0.194403
vn -0.550247 0.821016 0.152186
vn -0.196342 0.979031 0.054304
vn -0.196342 0.979031 0.054304
vn -0.196343 0.979030 0.054304
vn -0.196344 0.979030 0.054304
vn 0.000000 1.000000 0.000000
vn 0.000000 1.000000 0.000000
vn 0.000000 1.000000 0.000000
vn 0.000000 1.000000 0.000000
vn -0.030904 0.684225 -0.728616
vn -0.030907 0.684224 -0.728617
vn -0.024195 0.821018 -0.570390
vn -0.024195 0.821018 -0.570390
vn -0.030910 0.684223 -0.728617
vn -0.024195 0.821017 -0.570391
vn -0.008635 0.979030 -0.203531
vn -0.008635 0.979031 -0.203530
vn -0.008632 0.979031 -0.203531
vn -0.008632 0.979030 -0.203532
vn 0.000000 1.000000 -0.000000
vn 0.000000 1.000000 -0.000000
vn 0.000000 1.000000 -0.000000
vn 0.000000 1.000000 -0.000000
vn 0.379051 0.538045 -0.752880
vn 0.379048 0.538047 -0.752880
vn 0.321430 0.699346 -0.638434
vn 0.321432 0.699345 -0.638434
vn 0.379044 0.538049 -0.752881
vn 0.321428 0.699346 -0.638435
vn 0.131522 0.956275 -0.261230
vn 0.131521 0.956275 -0.261229
vn 0.131522 0.956274 -0.261230
vn 0.131521 0.956275 -0.261229
vn 0.000000 1.000000 0.000000
vn 0.000000 1.000000 0.000000
vn 0.000000 1.000000 0.000000
vn 0.000000 1.000000 0.000000
vn 0.648023 0.538045 0.539048
vn 0.648022 0.538046 0.539050
vn 0.549515 0.699345 0.457110
vn 0.549516 0.699344 0.457110
vn 0.648020 0.538046 0.539052
vn 0.549514 0.699346 0.457111
vn 0.224845 0.956275 0.187037
vn 0.224845 0.956275 0.187037
vn 0.224845 0.956275 0.187037
vn 0.000000 1.000000 0.000000
vn 0.000000 1.000000 0.000000
vn 0.000000 1.000000 0.000000
vn -0.583716 0.538047 -0.608096
vn -0.583715 0.538047 -0.608098
vn -0.494985 0.699345 -0.515661
vn -0.494986 0.699345 -0.515660
vn -0.583714 0.538046 -0.608099
vn -0.494983 0.699346 -0.515662
vn -0.202535 0.956275 -0.210994
vn -0.202534 0.956275 -0.210994
vn -0.202533 0.956275 -0.210994
vn -0.202533 0.956275 -0.210994
vn 0.000000 1.000000 0.000000
vn 0.000000 1.000000 0.000000
vn 0.000000 1.000000 0.000000
vn 0.000000 1.000000 0.000000
vn -0.817889 0.538049 0.203867
vn -0.817889 0.538048 0.203866
vn -0.693563 0.699346 0.172876
vn -0.693562 0.699346 0.172876
vn -0.817890 0.538047 0.203866
vn -0.693563 0.699346 0.172877
vn -0.283789 0.956274 0.070736
vn -0.283788 0.956274 0.070736
vn -0.283785 0.956275 0.070736
vn -0.283785 0.956275 0.070736
vn 0.000000 1.000000 0.000000
vn 0.000000 1.000000 0.000000
vn 0.000000 1.000000 0.000000
vn 0.000000 1.000000 0.000000
vn -0.346800 0.538048 0.768267
vn -0.346800 0.538048 0.768267
vn -0.294084 0.699346 0.651483
vn -0.294084 0.699347 0.651482
vn -0.346801 0.538047 0.768267
vn -0.294084 0.699345 0.651483
vn -0.120331 0.956275 0.266568
vn -0.120331 0.956275 0.266568
vn -0.120332 0.956275 0.266569
vn -0.120332 0.956275 0.266569
vn 0.000000 1.000000 0.000000
vn 0.000000 1.000000 0.000000
vn 0.000000 1.000000 0.000000
vn 0.000000 1.000000 0.000000
vn 0.826680 0.538047 0.164639
vn 0.826680 0.538048 0.164638
vn 0.701016 0.699346 0.139611
vn 0.701017 0.699346 0.139612
vn 0.826679 0.538048 0.164638
vn 0.701016 0.699347 0.139611
vn 0.286837 0.956275 0.057125
vn 0.286836 0.956275 0.057125
vn 0.286837 0.956275 0.057125
vn 0.000000 1.000000 0.000000
vn 0.000000 1.000000 0.000000
vn 0.000000 1.000000 0.000000
vn 0.552720 0.684224 -0.475750
vn 0.552719 0.684225 -0.475750
vn 0.432691 0.821018 -0.372435
vn 0.432692 0.821017 -0.372435
vn 0.552718 0.684226 -0.475750
vn 0.432689 0.821019 -0.372436
vn 0.154398 0.979030 -0.132895
vn 0.154398 0.979030 -0.132895
vn 0.154395 0.979031 -0.132895
vn 0.154395 0.979031 -0.132895
vn 0.000000 1.000000 -0.000000
vn 0.000000 1.000000 -0.000000
vn 0.000000 1.000000 0.000000
vn 0.000000 1.000000 0.000000
vn 0.687660 0.684225 0.242817
vn 0.687661 0.684224 0.242816
vn 0.538329 0.821017 0.190086
vn 0.538328 0.821018 0.190086
vn 0.687662 0.684223 0.242816
vn 0.538330 0.821017 0.190086
vn 0.192091 0.979030 0.067828
vn 0.192091 0.979030 0.067828
vn 0.192091 0.979030 0.067828
vn 0.192091 0.979030 0.067828
vn 0.000000 1.000000 0.000000
vn 0.000000 1.000000 0.000000
vn 0.000000 1.000000 0.000000
vn 0.000000 1.000000 0.000000
vn -0.710493 0.684222 -0.164440
vn -0.710492 0.684222 -0.164440
vn -0.556201 0.821017 -0.128731
vn -0.556201 0.821017 -0.128731
vn -0.710492 0.684222 -0.164440
vn -0.556202 0.821016 -0.128730
vn -0.198467 0.979031 -0.045935
vn -0.198467 0.979031 -0.045935
vn -0.198468 0.979031 -0.045934
vn -0.198468 0.979030 -0.045934
vn 0.000000 1.000000 0.000000
vn 0.000000 1.000000 0.000000
vn 0.000000 1.000000 0.000000
vn 0.000000 1.000000 0.000000
vn 0.000000 0.684224 0.729272
vn 0.000000 0.684224 0.729272
vn 0.000000 0.821018 0.570903
vn 0.000000 0.821018 0.570903
vn 0.000000 0.684224 0.729272
vn 0.000000 0.821018 0.570903
vn 0.000000 0.979031 0.203714
vn 0.000000 0.979031 0.203714
vn 0.000000 0.979031 0.203714
vn 0.000000 0.979031 0.203714
vn 0.000000 1.000000 0.000000
vn 0.000000 1.000000 0.000000
vn 0.000000 1.000000 0.000000
vn 0.000000 1.000000 0.000000
s 1
g pPlane14
usemtl initialShadingGroup
f 1/1/1 2/2/2 5/3/3 4/4/4
f 2/2/2 3/5/5 6/6/6 5/3/3
f 4/4/4 5/3/3 8/7/7 7/8/8
f 5/3/3 6/6/6 9/9/9 8/7/10
f 7/8/8 8/7/7 11/10/11 10/11/12
f 8/7/10 9/9/9 12/12/13 11/10/14
s 2
f 13/13/15 14/14/16 17/15/17 16/16/18
f 14/14/16 15/17/19 18/18/20 17/15/17
f 16/16/18 17/15/17 20/19/21 19/20/22
f 17/15/17 18/18/20 21/21/23 20/19/24
f 19/20/22 20/19/21 23/22/25 22/23/26
f 20/19/24 21/21/23 24/24/27 23/22/28
s 3
f 25/25/29 26/26/30 29/27/31 28/28/32
f 26/26/30 27/29/33 30/30/34 29/27/31
f 28/28/32 29/27/31 32/31/35 31/32/36
f 29/27/31 30/30/34 33/33/37 32/31/38
f 31/32/36 32/31/35 35/34/39 34/35/40
f 32/31/38 33/33/37 36/36/41 35/34/42
s 4
f 37/37/43 38/38/44 41/39/45 40/40/46
f 38/38/44 39/41/47 42/42/48 41/39/45
f 40/40/46 41/39/45 44/43/49 43/44/50
f 41/39/45 42/42/48 45/45/51 44/43/49
f 43/44/50 44/43/49 47/46/52 46/47/53
f 44/43/49 45/45/51 48/48/54 47/46/52
s 5
f 49/49/55 50/50/56 53/51/57 52/52/58
f 50/50/56 51/53/59 54/54/60 53/51/57
f 52/52/58 53/51/57 56/55/61 55/56/62
f 53/51/57 54/54/60 57/57/63 56/55/64
f 55/56/62 56/55/61 59/58/65 58/59/66
f 56/55/64 57/57/63 60/60/67 59/58/68
s 6
f 61/61/69 62/62/70 65/63/71 64/64/72
f 62/62/70 63/65/73 66/66/74 65/63/71
f 64/64/72 65/63/71 68/67/75 67/68/76
f 65/63/71 66/66/74 69/69/77 68/67/78
f 67/68/76 68/67/75 71/70/79 70/71/80
f 68/67/78 69/69/77 72/72/81 71/70/82
s 7
f 73/73/83 74/74/84 77/75/85 76/76/86
f 74/74/84 75/77/87 78/78/88 77/75/85
f 76/76/86 77/75/85 80/79/89 79/80/90
f 77/75/85 78/78/88 81/81/91 80/79/92
f 79/80/90 80/79/89 83/82/93 82/83/94
f 80/79/92 81/81/91 84/84/95 83/82/96
s 8
f 85/85/97 86/86/98 89/87/99 88/88/100
f 86/86/98 87/89/101 90/90/102 89/87/99
f 88/88/100 89/87/99 92/91/103 91/92/104
f 89/87/99 90/90/102 93/93/105 92/91/103
f 91/92/104 92/91/103 95/94/106 94/95/107
f 92/91/103 93/93/105 96/96/108 95/94/106
s 9
f 97/97/109 98/98/110 101/99/111 100/100/112
f 98/98/110 99/101/113 102/102/114 101/99/111
f 100/100/112 101/99/111 104/103/115 103/104/116
f 101/99/111 102/102/114 105/105/117 104/103/118
f 103/104/116 104/103/115 107/106/119 106/107/120
f 104/103/118 105/105/117 108/108/121 107/106/122
s 10
f 109/109/123 110/110/124 113/111/125 112/112/126
f 110/110/124 111/113/127 114/114/128 113/111/125
f 112/112/126 113/111/125 116/115/129 115/116/130
f 113/111/125 114/114/128 117/117/131 116/115/132
f 115/116/130 116/115/129 119/118/133 118/119/134
f 116/115/132 117/117/131 120/120/135 119/118/136
s 11
f 121/121/137 122/122/138 125/123/139 124/124/140
f 122/122/138 123/125/141 126/126/142 125/123/139
f 124/124/140 125/123/139 128/127/143 127/128/144
f 125/123/139 126/126/142 129/129/145 128/127/146
f 127/128/144 128/127/143 131/130/147 130/131/148
f 128/127/146 129/129/145 132/132/149 131/130/150
s 12
f 133/133/151 134/134/152 137/135/153 136/136/154
f 134/134/152 135/137/155 138/138/156 137/135/153
f 136/136/154 137/135/153 140/139/157 139/140/158
f 137/135/153 138/138/156 141/141/159 140/139/160
f 139/140/158 140/139/157 143/142/161 142/143/162
f 140/139/160 141/141/159 144/144/163 143/142/164
