# This file uses centimeters as units for non-parametric coordinates.

mtllib FlowersAndBushes4.mtl
g default
v 2.843264 0.770376 1.398481
v 3.905890 0.457555 -0.181201
v 1.295283 1.093594 0.293171
v 2.357909 0.780773 -1.286510
v 2.237065 0.679504 -1.179430
v 0.672629 0.161193 -3.126674
v 0.233653 0.815089 0.394045
v -1.330784 0.296779 -1.553202
v -0.501641 0.619572 -1.098010
v -3.794822 -0.285454 0.262996
v 0.842885 0.860231 2.315317
v -2.450297 -0.044799 3.676323
v 1.450557 0.672279 3.403656
v 2.108324 0.794507 2.398638
v 0.457364 0.982669 2.791376
v 1.115135 1.104896 1.786358
v -0.259418 1.031328 1.555333
v -0.448520 0.863365 0.374790
v -1.385893 0.664469 1.787971
v -1.574994 0.496506 0.607428
v 2.214197 0.622489 3.979519
v 0.813744 0.580674 1.847650
v 0.092538 0.395609 5.377713
v -1.307916 0.353794 3.245849
v -1.137589 0.475563 3.418935
v 3.201527 0.475563 3.418935
v -1.137589 0.475563 -0.920181
v 3.201527 0.475563 -0.920181
v 0.409817 0.553750 2.892577
v 2.511943 0.166606 4.530352
v 2.064787 0.553750 0.768381
v 4.166914 0.166606 2.406159
v 1.027547 1.035275 -0.401912
v 1.394737 0.636121 -1.480569
v -0.122573 0.901005 -0.743743
v 0.244617 0.501851 -1.822400
v 2.843264 0.770376 1.398481
v 3.905890 0.457555 -0.181201
v 1.295283 1.093594 0.293171
v 2.357909 0.780773 -1.286510
v 2.237065 0.679504 -1.179430
v 0.672629 0.161193 -3.126674
v 0.233653 0.815089 0.394045
v -1.330784 0.296779 -1.553202
v -0.501641 0.619572 -1.098010
v -3.794822 -0.285454 0.262996
v 0.842885 0.860231 2.315317
v -2.450297 -0.044799 3.676323
v 1.450557 0.672279 3.403656
v 2.108324 0.794507 2.398638
v 0.457364 0.982669 2.791376
v 1.115135 1.104896 1.786358
v -0.259418 1.031328 1.555333
v -0.448520 0.863365 0.374790
v -1.385893 0.664469 1.787971
v -1.574994 0.496506 0.607428
v 2.214197 0.622489 3.979519
v 0.813744 0.580674 1.847650
v 0.092538 0.395609 5.377713
v -1.307916 0.353794 3.245849
v -1.137589 0.475563 3.418935
v 3.201527 0.475563 3.418935
v -1.137589 0.475563 -0.920181
v 3.201527 0.475563 -0.920181
v 0.409817 0.553750 2.892577
v 2.511943 0.166606 4.530352
v 2.064787 0.553750 0.768381
v 4.166914 0.166606 2.406159
v 1.027547 1.035275 -0.401912
v 1.394737 0.636121 -1.480569
v -0.122573 0.901005 -0.743743
v 0.244617 0.501851 -1.822400
vt 0.691551 0.994365
vt 0.009373 0.994365
vt 0.691551 0.312188
vt 0.009373 0.312188
vt 0.691551 0.994365
vt 0.009373 0.994365
vt 0.691551 0.312188
vt 0.009373 0.312188
vt 0.691551 0.994365
vt 0.009373 0.994365
vt 0.691551 0.312188
vt 0.009373 0.312188
vt 0.992008 0.992410
vt 0.703696 0.992410
vt 0.992008 0.704098
vt 0.703696 0.704098
vt 0.992008 0.992410
vt 0.703696 0.992410
vt 0.992008 0.704098
vt 0.703696 0.704098
vt 0.691551 0.994365
vt 0.009373 0.994365
vt 0.691551 0.312188
vt 0.009373 0.312188
vt 0.691551 0.994365
vt 0.009373 0.994365
vt 0.691551 0.312188
vt 0.009373 0.312188
vt 0.691551 0.994365
vt 0.009373 0.994365
vt 0.691551 0.312188
vt 0.009373 0.312188
vt 0.992008 0.992410
vt 0.703696 0.992410
vt 0.992008 0.704098
vt 0.703696 0.704098
vt 0.691551 0.994365
vt 0.009373 0.994365
vt 0.691551 0.312188
vt 0.009373 0.312188
vt 0.691551 0.994365
vt 0.009373 0.994365
vt 0.691551 0.312188
vt 0.009373 0.312188
vt 0.691551 0.994365
vt 0.009373 0.994365
vt 0.691551 0.312188
vt 0.009373 0.312188
vt 0.992008 0.992410
vt 0.703696 0.992410
vt 0.992008 0.704098
vt 0.703696 0.704098
vt 0.992008 0.992410
vt 0.703696 0.992410
vt 0.992008 0.704098
vt 0.703696 0.704098
vt 0.691551 0.994365
vt 0.009373 0.994365
vt 0.691551 0.312188
vt 0.009373 0.312188
vt 0.691551 0.994365
vt 0.009373 0.994365
vt 0.691551 0.312188
vt 0.009373 0.312188
vt 0.691551 0.994365
vt 0.009373 0.994365
vt 0.691551 0.312188
vt 0.009373 0.312188
vt 0.992008 0.992410
vt 0.703696 0.992410
vt 0.992008 0.704098
vt 0.703696 0.704098
vn 0.230051 0.972443 -0.037820
vn 0.230051 0.972443 -0.037820
vn 0.230051 0.972443 -0.037820
vn 0.230051 0.972443 -0.037820
vn 0.230051 0.972443 -0.037820
vn 0.230051 0.972443 -0.037820
vn -0.084747 0.977699 -0.192153
vn -0.084747 0.977699 -0.192153
vn -0.084747 0.977699 -0.192153
vn -0.084747 0.977699 -0.192153
vn -0.084747 0.977699 -0.192153
vn -0.084747 0.977699 -0.192153
vn -0.252780 0.967014 0.031392
vn -0.252780 0.967014 0.031392
vn -0.252780 0.967014 0.031392
vn -0.252780 0.967014 0.031392
vn -0.252780 0.967014 0.031392
vn -0.252780 0.967014 0.031392
vn 0.162663 0.961071 0.223344
vn 0.162663 0.961071 0.223344
vn 0.162663 0.961071 0.223345
vn 0.162663 0.961071 0.223345
vn 0.162663 0.961071 0.223344
vn 0.162663 0.961071 0.223344
vn -0.323923 0.942505 -0.082210
vn -0.323923 0.942505 -0.082209
vn -0.323923 0.942505 -0.082210
vn -0.323923 0.942505 -0.082210
vn -0.323923 0.942505 -0.082209
vn -0.323923 0.942505 -0.082209
vn -0.083306 0.995903 0.035190
vn -0.083306 0.995903 0.035190
vn -0.083306 0.995903 0.035190
vn -0.083306 0.995903 0.035190
vn -0.083306 0.995903 0.035190
vn -0.083306 0.995903 0.035190
vn -0.045616 0.996456 -0.070670
vn -0.168630 0.975087 0.144113
vn 0.168312 0.984667 -0.045852
vn 0.168312 0.984667 -0.045852
vn -0.168630 0.975087 0.144113
vn 0.045963 0.980859 0.189218
vn 0.113413 0.989611 0.088361
vn 0.113413 0.989611 0.088361
vn 0.113413 0.989611 0.088361
vn 0.113413 0.989611 0.088361
vn 0.113413 0.989611 0.088361
vn 0.113413 0.989611 0.088361
vn -0.005755 0.937193 -0.348764
vn -0.005755 0.937193 -0.348765
vn -0.005755 0.937193 -0.348764
vn -0.005755 0.937193 -0.348764
vn -0.005755 0.937193 -0.348765
vn -0.005755 0.937193 -0.348764
vn 0.230051 0.972443 -0.037820
vn 0.230051 0.972443 -0.037820
vn 0.230051 0.972443 -0.037820
vn 0.230051 0.972443 -0.037820
vn 0.230051 0.972443 -0.037820
vn 0.230051 0.972443 -0.037820
vn -0.084747 0.977699 -0.192153
vn -0.084747 0.977699 -0.192153
vn -0.084747 0.977699 -0.192153
vn -0.084747 0.977699 -0.192153
vn -0.084747 0.977699 -0.192153
vn -0.084747 0.977699 -0.192153
vn -0.252780 0.967014 0.031392
vn -0.252780 0.967014 0.031392
vn -0.252780 0.967014 0.031392
vn -0.252780 0.967014 0.031392
vn -0.252780 0.967014 0.031392
vn -0.252780 0.967014 0.031392
vn 0.162663 0.961071 0.223344
vn 0.162663 0.961071 0.223344
vn 0.162663 0.961071 0.223345
vn 0.162663 0.961071 0.223345
vn 0.162663 0.961071 0.223344
vn 0.162663 0.961071 0.223344
vn -0.323923 0.942505 -0.082210
vn -0.323923 0.942505 -0.082209
vn -0.323923 0.942505 -0.082210
vn -0.323923 0.942505 -0.082210
vn -0.323923 0.942505 -0.082209
vn -0.323923 0.942505 -0.082209
vn -0.083306 0.995903 0.035190
vn -0.083306 0.995903 0.035190
vn -0.083306 0.995903 0.035190
vn -0.083306 0.995903 0.035190
vn -0.083306 0.995903 0.035190
vn -0.083306 0.995903 0.035190
vn -0.045616 0.996456 -0.070670
vn -0.168630 0.975087 0.144113
vn 0.168312 0.984667 -0.045852
vn 0.168312 0.984667 -0.045852
vn -0.168630 0.975087 0.144113
vn 0.045963 0.980859 0.189218
vn 0.113413 0.989611 0.088361
vn 0.113413 0.989611 0.088361
vn 0.113413 0.989611 0.088361
vn 0.113413 0.989611 0.088361
vn 0.113413 0.989611 0.088361
vn 0.113413 0.989611 0.088361
vn -0.005755 0.937193 -0.348764
vn -0.005755 0.937193 -0.348765
vn -0.005755 0.937193 -0.348764
vn -0.005755 0.937193 -0.348764
vn -0.005755 0.937193 -0.348765
vn -0.005755 0.937193 -0.348764
s off
g pPlane14
usemtl FlowersAndBushes2_initialShadingGroup
f 4/1/1 3/2/2 2/3/3
f 2/3/4 3/2/5 1/4/6
f 8/5/7 7/6/8 6/7/9
f 6/7/10 7/6/11 5/8/12
f 12/9/13 11/10/14 10/11/15
f 10/11/16 11/10/17 9/12/18
f 16/13/19 15/14/20 14/15/21
f 14/15/22 15/14/23 13/16/24
f 20/17/25 19/18/26 18/19/27
f 18/19/28 19/18/29 17/20/30
f 24/21/31 23/22/32 22/23/33
f 22/23/34 23/22/35 21/24/36
f 28/25/37 27/26/38 26/27/39
f 26/27/40 27/26/41 25/28/42
f 32/29/43 31/30/44 30/31/45
f 30/31/46 31/30/47 29/32/48
f 36/33/49 35/34/50 34/35/51
f 34/35/52 35/34/53 33/36/54
f 40/37/55 39/38/56 38/39/57
f 38/39/58 39/38/59 37/40/60
f 44/41/61 43/42/62 42/43/63
f 42/43/64 43/42/65 41/44/66
f 48/45/67 47/46/68 46/47/69
f 46/47/70 47/46/71 45/48/72
f 52/49/73 51/50/74 50/51/75
f 50/51/76 51/50/77 49/52/78
f 56/53/79 55/54/80 54/55/81
f 54/55/82 55/54/83 53/56/84
f 60/57/85 59/58/86 58/59/87
f 58/59/88 59/58/89 57/60/90
f 64/61/91 63/62/92 62/63/93
f 62/63/94 63/62/95 61/64/96
f 68/65/97 67/66/98 66/67/99
f 66/67/100 67/66/101 65/68/102
f 72/69/103 71/70/104 70/71/105
f 70/71/106 71/70/107 69/72/108
