# This file uses centimeters as units for non-parametric coordinates.

mtllib GrassQuads.mtl
g default
v -4.505004 0.000000 -2.082095
v -3.505004 0.000000 -2.082095
v -4.505004 1.000000 -2.082095
v -3.505004 1.000000 -2.082095
v -4.471176 0.000000 -1.810108
v -3.497129 0.000000 -1.583761
v -4.471176 1.000000 -1.810108
v -3.497129 1.000000 -1.583761
v -4.491440 0.000000 -2.331984
v -3.494996 0.000000 -2.416239
v -4.491440 1.000000 -2.331984
v -3.494996 1.000000 -2.416239
v -4.500128 0.000000 -1.771015
v -3.523219 0.000000 -1.984673
v -4.500128 1.000000 -1.771015
v -3.523219 1.000000 -1.984673
v -4.460361 0.000000 -2.385206
v -3.562739 0.000000 -1.944439
v -4.460361 1.000000 -2.385206
v -3.562739 1.000000 -1.944439
vt 0.000000 0.000000
vt 1.000000 0.000000
vt 0.000000 1.000000
vt 1.000000 1.000000
vt 0.000000 0.000000
vt 1.000000 0.000000
vt 1.000000 1.000000
vt 0.000000 1.000000
vt 0.000000 0.000000
vt 1.000000 0.000000
vt 1.000000 1.000000
vt 0.000000 1.000000
vt 0.000000 0.000000
vt 1.000000 0.000000
vt 1.000000 1.000000
vt 0.000000 1.000000
vt 0.000000 0.000000
vt 1.000000 0.000000
vt 1.000000 1.000000
vt 0.000000 1.000000
vn 0.000000 0.000000 1.000000
vn 0.000000 0.000000 1.000000
vn 0.000000 0.000000 1.000000
vn 0.000000 0.000000 1.000000
vn -0.226347 0.000000 0.974047
vn -0.226347 0.000000 0.974047
vn -0.226347 0.000000 0.974047
vn -0.226347 0.000000 0.974047
vn 0.084255 0.000000 0.996444
vn 0.084255 0.000000 0.996444
vn 0.084255 0.000000 0.996444
vn 0.084255 0.000000 0.996444
vn 0.213657 0.000000 0.976909
vn 0.213657 0.000000 0.976909
vn 0.213657 0.000000 0.976909
vn 0.213657 0.000000 0.976909
vn -0.440767 0.000000 0.897621
vn -0.440767 0.000000 0.897621
vn -0.440767 0.000000 0.897621
vn -0.440767 0.000000 0.897621
s 1
g pPlane20
usemtl initialShadingGroup
f 1/1/1 2/2/2 3/3/3
f 3/3/3 2/2/2 4/4/4
s 2
f 5/5/5 6/6/6 7/8/7
f 7/8/7 6/6/6 8/7/8
s 3
f 9/9/9 10/10/10 11/12/11
f 11/12/11 10/10/10 12/11/12
s 4
f 13/13/13 14/14/14 15/16/15
f 15/16/15 14/14/14 16/15/16
s 5
f 17/17/17 18/18/18 19/20/19
f 19/20/19 18/18/18 20/19/20
