# This file uses centimeters as units for non-parametric coordinates.

mtllib Pillar.mtl
g default
v -12.000003 0.000000 0.000000
v -12.000003 3.989184 0.000000
v -11.589602 0.344918 -0.197638
v -11.715994 0.344918 -0.356133
v -11.898640 0.344918 -0.444090
v -12.101362 0.344918 -0.444090
v -12.284007 0.344918 -0.356133
v -12.410404 0.344918 -0.197638
v -12.455512 0.344918 0.000000
v -12.410404 0.344918 0.197639
v -12.284007 0.344918 0.356134
v -12.101362 0.344918 0.444091
v -11.898640 0.344918 0.444091
v -11.715994 0.344918 0.356134
v -11.589602 0.344918 0.197639
v -11.544490 0.344918 0.000000
v -11.589602 3.666479 -0.197638
v -11.544490 3.666479 0.000000
v -11.589602 3.666479 0.197639
v -11.715994 3.666479 0.356134
v -11.898640 3.666479 0.444091
v -12.101362 3.666479 0.444091
v -12.284007 3.666479 0.356134
v -12.410404 3.666479 0.197639
v -12.455512 3.666479 0.000000
v -12.410404 3.666479 -0.197638
v -12.284007 3.666479 -0.356133
v -12.101362 3.666479 -0.444090
v -11.898640 3.666479 -0.444090
v -11.715994 3.666479 -0.356133
v -11.421219 0.000000 -0.278727
v -11.599471 0.000000 -0.502249
v -11.599472 0.231960 -0.502250
v -11.421219 0.231960 -0.278728
v -11.857053 0.000000 -0.626296
v -11.857053 0.231960 -0.626296
v -12.142949 0.000000 -0.626296
v -12.142949 0.231960 -0.626296
v -12.400534 0.000000 -0.502250
v -12.400533 0.231960 -0.502250
v -12.578787 0.000000 -0.278728
v -12.578786 0.231960 -0.278728
v -12.642406 0.000000 -0.000001
v -12.642405 0.231960 0.000000
v -12.578786 0.000000 0.278730
v -12.578787 0.231960 0.278728
v -12.400533 0.000000 0.502250
v -12.400534 0.231960 0.502250
v -12.142949 0.000000 0.626296
v -12.142949 0.231960 0.626296
v -11.857053 0.000000 0.626296
v -11.857053 0.231960 0.626296
v -11.599472 0.000000 0.502250
v -11.599473 0.231960 0.502251
v -11.421219 0.000000 0.278728
v -11.421219 0.231960 0.278728
v -11.357601 0.000000 0.000000
v -11.357597 0.231960 -0.000001
v -11.421220 3.756845 -0.278729
v -11.357601 3.756845 -0.000000
v -11.421219 3.756845 0.278728
v -11.599472 3.756845 0.502250
v -11.857053 3.756845 0.626296
v -12.142949 3.756845 0.626296
v -12.400533 3.756845 0.502250
v -12.578787 3.756845 0.278728
v -12.642405 3.756845 0.000001
v -12.578787 3.756845 -0.278728
v -12.400534 3.756845 -0.502250
v -12.142949 3.756845 -0.626296
v -11.857053 3.756845 -0.626296
v -11.599472 3.756845 -0.502249
v -11.442685 3.989184 -0.268389
v -11.421219 3.965952 -0.278728
v -11.357601 3.965952 0.000001
v -11.381431 3.989184 0.000001
v -11.421221 3.965952 0.278730
v -11.442690 3.989184 0.268392
v -11.599472 3.965952 0.502250
v -11.614326 3.989184 0.483620
v -11.857053 3.965952 0.626296
v -11.862355 3.989184 0.603065
v -12.142949 3.965952 0.626296
v -12.137647 3.989184 0.603065
v -12.400535 3.965952 0.502249
v -12.385676 3.989184 0.483619
v -12.578787 3.965952 0.278729
v -12.557317 3.989184 0.268390
v -12.642405 3.965952 -0.000000
v -12.618576 3.989184 -0.000000
v -12.578788 3.965952 -0.278727
v -12.557317 3.989184 -0.268387
v -12.400533 3.965952 -0.502250
v -12.385675 3.989184 -0.483620
v -12.142949 3.965952 -0.626296
v -12.137647 3.989184 -0.603064
v -11.857053 3.965952 -0.626296
v -11.862355 3.989184 -0.603064
v -11.599471 3.965952 -0.502248
v -11.614326 3.989184 -0.483618
vt 0.518452 0.129582
vt 0.560674 0.140992
vt 0.376166 0.802522
vt 0.334398 0.790539
vt 0.602887 0.152678
vt 0.417999 0.814471
vt 0.645074 0.164538
vt 0.459865 0.826411
vt 0.687209 0.176534
vt 0.501745 0.838341
vt 0.729257 0.188673
vt 0.543630 0.850240
vt 0.771155 0.201008
vt 0.585509 0.862048
vt 0.812804 0.213636
vt 0.627367 0.873655
vt 0.854050 0.226690
vt 0.669163 0.884876
vt 0.894652 0.240321
vt 0.710793 0.895404
vt 0.934168 0.254791
vt 0.170419 0.740580
vt 0.392189 0.099112
vt 0.210371 0.753808
vt 0.434117 0.108355
vt 0.251336 0.766280
vt 0.476248 0.118619
vt 0.292752 0.778480
vt 0.131763 0.133021
vt 0.540614 0.039223
vt 0.261573 0.153302
vt 0.572485 0.097994
vt 0.529126 0.085927
vt 0.257517 0.094971
vt 0.615413 0.110095
vt 0.228554 0.044177
vt 0.658143 0.122192
vt 0.180420 0.010979
vt 0.700838 0.134312
vt 0.122650 0.001953
vt 0.743646 0.146530
vt 0.066684 0.018887
vt 0.786738 0.159000
vt 0.023607 0.058427
vt 0.830344 0.172063
vt 0.001953 0.112741
vt 0.874786 0.186512
vt 0.006009 0.171072
vt 0.920484 0.204251
vt 0.034972 0.221867
vt 0.335317 0.049522
vt 0.083106 0.255064
vt 0.390524 0.053597
vt 0.140877 0.264089
vt 0.439236 0.062892
vt 0.196842 0.247155
vt 0.484949 0.074064
vt 0.320416 0.830296
vt 0.277444 0.817911
vt 0.233493 0.804664
vt 0.187552 0.789185
vt 0.138112 0.767791
vt 0.709769 0.938652
vt 0.662193 0.927165
vt 0.617557 0.915042
vt 0.574297 0.902772
vt 0.531699 0.890544
vt 0.489417 0.878409
vt 0.447267 0.866357
vt 0.405129 0.854361
vt 0.362894 0.842372
vt 0.242111 0.446487
vt 0.307626 0.871545
vt 0.350579 0.883741
vt 0.206741 0.490292
vt 0.254971 0.391672
vt 0.263792 0.858870
vt 0.242774 0.336706
vt 0.218442 0.844964
vt 0.207938 0.292475
vt 0.170752 0.828335
vt 0.157359 0.267740
vt 0.757097 0.991612
vt 0.101057 0.267400
vt 0.703069 0.980479
vt 0.050183 0.291521
vt 0.653360 0.969302
vt 0.014814 0.335327
vt 0.607226 0.957039
vt 0.001953 0.390142
vt 0.563141 0.944541
vt 0.014150 0.445107
vt 0.520132 0.932149
vt 0.048987 0.489338
vt 0.477642 0.919920
vt 0.099566 0.514074
vt 0.435357 0.907817
vt 0.155867 0.514414
vt 0.393068 0.895783
vt 0.128462 0.390907
vt 0.118764 0.807684
vt 0.764184 0.947778
vt 0.391191 0.902273
vt 0.348681 0.890224
vt 0.433488 0.914308
vt 0.475777 0.926412
vt 0.518275 0.938644
vt 0.561314 0.951040
vt 0.605471 0.963552
vt 0.651739 0.975835
vt 0.701452 0.987012
vt 0.117524 0.814506
vt 0.754358 0.998047
vt 0.168507 0.834632
vt 0.216270 0.851335
vt 0.261762 0.865307
vt 0.305684 0.878014
vt 0.752039 0.904656
vt 0.494918 0.026929
vt 0.239918 0.207616
vt 0.446559 0.015439
vt 0.394112 0.006581
vt 0.992836 0.188504
vt 0.337537 0.001953
vt 0.968023 0.229753
vt 0.350741 0.091237
vt 0.942569 0.162101
vt 0.893599 0.142475
vt 0.846692 0.126948
vt 0.801542 0.113380
vt 0.757556 0.100678
vt 0.714230 0.088339
vt 0.671198 0.076125
vt 0.628158 0.063907
vt 0.584783 0.051610
vn 0.900970 0.000000 -0.433882
vn 0.623493 0.000000 -0.781829
vn 0.623493 0.000000 -0.781829
vn 0.900970 0.000000 -0.433882
vn 0.222519 0.000000 -0.974928
vn 0.222519 0.000000 -0.974928
vn -0.222519 0.000000 -0.974928
vn -0.222519 0.000000 -0.974928
vn -0.623489 0.000000 -0.781832
vn -0.623489 0.000000 -0.781832
vn -0.900969 0.000000 -0.433884
vn -0.900969 0.000000 -0.433884
vn -1.000000 0.000000 -0.000000
vn -1.000000 0.000000 -0.000000
vn -0.900969 0.000000 0.433884
vn -0.900969 0.000000 0.433884
vn -0.623488 0.000000 0.781833
vn -0.623488 0.000000 0.781833
vn -0.222520 0.000000 0.974928
vn -0.222520 0.000000 0.974928
vn 0.222519 0.000000 0.974928
vn 0.222519 0.000000 0.974928
vn 0.623493 0.000000 0.781829
vn 0.623493 0.000000 0.781829
vn 0.900970 0.000000 0.433882
vn 0.900970 0.000000 0.433882
vn 1.000000 0.000000 0.000000
vn 1.000000 0.000000 0.000000
vn 0.900968 -0.000004 -0.433886
vn 0.623493 0.000000 -0.781829
vn 0.623492 0.000000 -0.781830
vn 0.900967 -0.000004 -0.433887
vn 0.222522 -0.000000 -0.974928
vn 0.222522 -0.000000 -0.974928
vn -0.222520 0.000000 -0.974928
vn -0.222520 0.000000 -0.974928
vn -0.623489 0.000002 -0.781832
vn -0.623488 0.000002 -0.781833
vn -0.900968 0.000004 -0.433885
vn -0.900968 0.000004 -0.433886
vn -1.000000 0.000002 -0.000001
vn -1.000000 0.000002 0.000001
vn -0.900968 -0.000000 0.433886
vn -0.900969 -0.000000 0.433883
vn -0.623488 -0.000000 0.781833
vn -0.623489 -0.000000 0.781833
vn -0.222521 -0.000000 0.974928
vn -0.222521 -0.000000 0.974928
vn 0.222522 0.000000 0.974928
vn 0.222522 0.000000 0.974928
vn 0.623493 0.000001 0.781829
vn 0.623492 0.000001 0.781829
vn 0.900968 -0.000003 0.433886
vn 0.900967 -0.000003 0.433887
vn 1.000000 -0.000008 0.000001
vn 1.000000 -0.000008 -0.000001
vn 0.000000 -1.000000 0.000000
vn 0.000000 -1.000000 0.000000
vn 0.000000 -1.000000 0.000000
vn 0.322512 0.855825 -0.404412
vn 0.466038 0.855826 -0.224434
vn 0.466038 0.855826 -0.224434
vn 0.322510 0.855825 -0.404413
vn 0.000000 -1.000000 0.000000
vn 0.115102 0.855826 -0.504295
vn 0.115102 0.855826 -0.504295
vn 0.000000 -1.000000 0.000000
vn -0.115101 0.855826 -0.504294
vn -0.115101 0.855827 -0.504294
vn 0.000000 -1.000000 0.000000
vn -0.322507 0.855827 -0.404413
vn -0.322508 0.855827 -0.404413
vn 0.000000 -1.000000 0.000000
vn -0.466038 0.855827 -0.224432
vn -0.466037 0.855827 -0.224433
vn 0.000000 -1.000000 0.000000
vn -0.517262 0.855827 -0.000001
vn -0.517262 0.855827 -0.000000
vn 0.000000 -1.000000 0.000000
vn -0.466037 0.855827 0.224431
vn -0.466036 0.855827 0.224431
vn 0.000000 -1.000000 0.000000
vn -0.322507 0.855827 0.404413
vn -0.322508 0.855827 0.404412
vn 0.000000 -1.000000 0.000000
vn -0.115102 0.855827 0.504294
vn -0.115102 0.855827 0.504294
vn 0.000000 -1.000000 0.000000
vn 0.115102 0.855826 0.504295
vn 0.115102 0.855826 0.504295
vn 0.000000 -1.000000 0.000000
vn 0.322512 0.855825 0.404413
vn 0.322511 0.855825 0.404414
vn 0.000000 -1.000000 0.000000
vn 0.466039 0.855825 0.224434
vn 0.466039 0.855825 0.224434
vn 0.000000 -1.000000 0.000000
vn 0.517261 0.855828 0.000000
vn 0.517261 0.855828 -0.000000
vn 0.435307 -0.900282 -0.000001
vn 0.392199 -0.900282 -0.188872
vn 0.392198 -0.900282 -0.188873
vn 0.435307 -0.900282 -0.000001
vn 0.392199 -0.900282 0.188871
vn 0.392199 -0.900282 0.188871
vn 0.271411 -0.900282 0.340335
vn 0.271410 -0.900282 0.340336
vn 0.096864 -0.900283 0.424392
vn 0.096864 -0.900283 0.424392
vn -0.096864 -0.900283 0.424391
vn -0.096864 -0.900283 0.424391
vn -0.271407 -0.900284 0.340335
vn -0.271408 -0.900284 0.340334
vn -0.392194 -0.900284 0.188871
vn -0.392194 -0.900284 0.188871
vn -0.435304 -0.900284 -0.000000
vn -0.435303 -0.900284 0.000000
vn -0.392195 -0.900284 -0.188870
vn -0.392195 -0.900284 -0.188870
vn -0.271407 -0.900284 -0.340335
vn -0.271408 -0.900284 -0.340334
vn -0.096864 -0.900283 -0.424391
vn -0.096864 -0.900283 -0.424391
vn 0.096865 -0.900283 -0.424392
vn 0.096864 -0.900283 -0.424392
vn 0.271411 -0.900282 -0.340335
vn 0.271410 -0.900282 -0.340336
vn 0.628984 0.715985 -0.302895
vn 0.628982 0.715985 -0.302898
vn 0.435263 0.715987 -0.545810
vn 0.435272 0.715987 -0.545803
vn 0.698097 0.716004 0.000005
vn 0.698097 0.716004 0.000005
vn 0.628963 0.716004 0.302893
vn 0.628964 0.716004 0.302891
vn 0.435264 0.716000 0.545793
vn 0.435252 0.716000 0.545802
vn 0.155340 0.716011 0.680586
vn 0.155339 0.716011 0.680587
vn -0.155340 0.716012 0.680585
vn -0.155339 0.716012 0.680585
vn -0.435243 0.716014 0.545791
vn -0.435249 0.716014 0.545786
vn -0.628949 0.716018 0.302889
vn -0.628950 0.716018 0.302887
vn -0.698080 0.716020 0.000001
vn -0.698080 0.716020 0.000001
vn -0.628941 0.716027 -0.302883
vn -0.628941 0.716027 -0.302883
vn -0.435245 0.716022 -0.545779
vn -0.435245 0.716022 -0.545778
vn -0.155339 0.716014 -0.680584
vn -0.155339 0.716014 -0.680584
vn 0.155343 0.716007 -0.680590
vn 0.155342 0.716007 -0.680590
vn 0.000000 1.000000 -0.000000
vn 0.000000 1.000000 0.000000
vn 0.000000 1.000000 0.000000
vn 0.000000 1.000000 0.000000
vn 0.000000 1.000000 -0.000000
vn 0.000000 1.000000 0.000000
vn 0.000000 1.000000 0.000000
vn 0.000000 1.000000 0.000000
vn 0.000000 1.000000 -0.000001
vn 0.000000 1.000000 -0.000001
vn 0.000000 1.000000 0.000000
vn 0.000000 1.000000 0.000000
vn 0.000000 1.000000 0.000000
vn 0.000000 1.000000 0.000000
vn 0.000000 1.000000 0.000000
vn 1.000000 0.000001 0.000000
vn 0.900968 -0.000000 -0.433885
vn 0.900969 -0.000000 -0.433883
vn 1.000000 0.000001 0.000002
vn 0.900970 0.000002 0.433883
vn 0.900968 0.000002 0.433886
vn 0.623492 0.000000 0.781830
vn 0.623492 0.000000 0.781830
vn 0.222522 0.000000 0.974928
vn 0.222522 0.000000 0.974928
vn -0.222522 0.000001 0.974928
vn -0.222522 0.000001 0.974928
vn -0.623487 0.000000 0.781834
vn -0.623490 0.000000 0.781832
vn -0.900968 -0.000000 0.433885
vn -0.900968 -0.000000 0.433885
vn -1.000000 -0.000001 0.000002
vn -1.000000 -0.000001 -0.000000
vn -0.900969 -0.000001 -0.433885
vn -0.900969 -0.000001 -0.433884
vn -0.623489 0.000000 -0.781832
vn -0.623488 0.000000 -0.781833
vn -0.222520 0.000000 -0.974928
vn -0.222520 0.000000 -0.974928
vn 0.222524 0.000001 -0.974927
vn 0.222524 0.000001 -0.974927
vn 0.623490 0.000001 -0.781831
vn 0.623492 0.000001 -0.781830
s 1
g pCylinder3
usemtl initialShadingGroup
f 3/1/1 4/2/2 30/3/3 17/4/4
f 4/2/2 5/5/5 29/6/6 30/3/3
f 5/5/5 6/7/7 28/8/8 29/6/6
f 6/7/7 7/9/9 27/10/10 28/8/8
f 7/9/9 8/11/11 26/12/12 27/10/10
f 8/11/11 9/13/13 25/14/14 26/12/12
f 9/13/13 10/15/15 24/16/16 25/14/14
f 10/15/15 11/17/17 23/18/18 24/16/16
f 11/17/17 12/19/19 22/20/20 23/18/18
f 12/19/19 13/21/21 21/118/22 22/20/20
f 13/126/21 14/23/23 20/24/24 21/22/22
f 14/23/23 15/25/25 19/26/26 20/24/24
f 15/25/25 16/27/27 18/28/28 19/26/26
f 16/27/27 3/1/1 17/4/4 18/28/28
s 2
f 31/30/29 32/135/30 33/32/31 34/33/32
f 32/135/30 35/134/33 36/35/34 33/32/31
f 35/134/33 37/133/35 38/37/36 36/35/34
f 37/133/35 39/132/37 40/39/38 38/37/36
f 39/132/37 41/131/39 42/41/40 40/39/38
f 41/131/39 43/130/41 44/43/42 42/41/40
f 43/130/41 45/129/43 46/45/44 44/43/42
f 45/129/43 47/128/45 48/47/46 46/45/44
f 47/128/45 49/127/47 50/49/48 48/47/46
f 49/127/47 51/123/49 52/125/50 50/49/48
f 51/124/49 53/122/51 54/53/52 52/51/50
f 53/122/51 55/121/53 56/55/54 54/53/52
f 55/121/53 57/119/55 58/57/56 56/55/54
f 57/119/55 31/30/29 34/33/32 58/57/56
s 3
f 1/29/57 32/31/58 31/120/59
s 4
f 4/2/60 3/1/61 34/33/62 33/32/63
s 3
f 1/29/57 35/34/64 32/31/58
s 4
f 5/5/65 4/2/60 33/32/63 36/35/66
s 3
f 1/29/57 37/36/67 35/34/64
s 4
f 6/7/68 5/5/65 36/35/66 38/37/69
s 3
f 1/29/57 39/38/70 37/36/67
s 4
f 7/9/71 6/7/68 38/37/69 40/39/72
s 3
f 1/29/57 41/40/73 39/38/70
s 4
f 8/11/74 7/9/71 40/39/72 42/41/75
s 3
f 1/29/57 43/42/76 41/40/73
s 4
f 9/13/77 8/11/74 42/41/75 44/43/78
s 3
f 1/29/57 45/44/79 43/42/76
s 4
f 10/15/80 9/13/77 44/43/78 46/45/81
s 3
f 1/29/57 47/46/82 45/44/79
s 4
f 11/17/83 10/15/80 46/45/81 48/47/84
s 3
f 1/29/57 49/48/85 47/46/82
s 4
f 12/19/86 11/17/83 48/47/84 50/49/87
s 3
f 1/29/57 51/50/88 49/48/85
s 4
f 13/21/89 12/19/86 50/49/87 52/125/90
s 3
f 1/29/57 53/52/91 51/50/88
s 4
f 14/23/92 13/126/89 52/51/90 54/53/93
s 3
f 1/29/57 55/54/94 53/52/91
s 4
f 15/25/95 14/23/92 54/53/93 56/55/96
s 3
f 1/29/57 57/56/97 55/54/94
s 4
f 16/27/98 15/25/95 56/55/96 58/57/99
s 3
f 1/29/57 31/120/59 57/56/97
s 4
f 3/1/61 16/27/98 58/57/99 34/33/62
s 5
f 18/28/100 17/4/101 59/58/102 60/59/103
f 19/26/104 18/28/100 60/59/103 61/60/105
f 20/24/106 19/26/104 61/60/105 62/61/107
f 21/22/108 20/24/106 62/61/107 63/62/109
f 22/20/110 21/118/108 63/102/109 64/63/111
f 23/18/112 22/20/110 64/63/111 65/64/113
f 24/16/114 23/18/112 65/64/113 66/65/115
f 25/14/116 24/16/114 66/65/115 67/66/117
f 26/12/118 25/14/116 67/66/117 68/67/119
f 27/10/120 26/12/118 68/67/119 69/68/121
f 28/8/122 27/10/120 69/68/121 70/69/123
f 29/6/124 28/8/122 70/69/123 71/70/125
f 30/3/126 29/6/124 71/70/125 72/71/127
f 17/4/101 30/3/126 72/71/127 59/58/102
s 6
f 73/117/128 74/73/129 99/74/130 100/104/131
f 74/73/129 73/117/128 76/116/132 75/77/133
f 75/77/133 76/116/132 78/115/134 77/79/135
f 77/79/135 78/115/134 80/114/136 79/81/137
f 79/81/137 80/114/136 82/112/138 81/101/139
f 81/83/139 82/113/138 84/111/140 83/85/141
f 83/85/141 84/111/140 86/110/142 85/87/143
f 85/87/143 86/110/142 88/109/144 87/89/145
f 87/89/145 88/109/144 90/108/146 89/91/147
f 89/91/147 90/108/146 92/107/148 91/93/149
f 91/93/149 92/107/148 94/106/150 93/95/151
f 93/95/151 94/106/150 96/105/152 95/97/153
f 95/97/153 96/105/152 98/103/154 97/99/155
f 97/99/155 98/103/154 100/104/131 99/74/130
s 7
f 2/100/156 73/72/157 100/75/158
f 2/100/156 100/75/158 98/98/159
f 2/100/156 98/98/159 96/96/160
f 2/100/156 96/96/160 94/94/161
f 2/100/156 94/94/161 92/92/162
f 2/100/156 92/92/162 90/90/163
f 2/100/156 90/90/163 88/88/164
f 2/100/156 88/88/164 86/86/165
f 2/100/156 86/86/165 84/84/166
f 2/100/156 84/84/166 82/82/167
f 2/100/156 82/82/167 80/80/168
f 2/100/156 80/80/168 78/78/169
f 2/100/156 78/78/169 76/76/170
f 2/100/156 76/76/170 73/72/157
s 8
f 60/59/171 59/58/172 74/73/173 75/77/174
f 61/60/175 60/59/171 75/77/174 77/79/176
f 62/61/177 61/60/175 77/79/176 79/81/178
f 63/62/179 62/61/177 79/81/178 81/101/180
f 64/63/181 63/102/179 81/83/180 83/85/182
f 65/64/183 64/63/181 83/85/182 85/87/184
f 66/65/185 65/64/183 85/87/184 87/89/186
f 67/66/187 66/65/185 87/89/186 89/91/188
f 68/67/189 67/66/187 89/91/188 91/93/190
f 69/68/191 68/67/189 91/93/190 93/95/192
f 70/69/193 69/68/191 93/95/192 95/97/194
f 71/70/195 70/69/193 95/97/194 97/99/196
f 72/71/197 71/70/195 97/99/196 99/74/198
f 59/58/172 72/71/197 99/74/198 74/73/173
