# This file uses centimeters as units for non-parametric coordinates.

mtllib Rock3.mtl
g default
v 3.740493 -0.572353 -4.304259
v 3.544644 -0.622287 -4.402921
v 3.278571 -0.658170 -4.437596
v 3.012497 -0.638094 -4.402921
v 2.817719 -0.642190 -4.308186
v 2.725725 -0.607197 -4.178777
v 2.802726 -0.569748 -4.049367
v 3.012497 -0.544492 -3.954633
v 3.278571 -0.567646 -3.919958
v 3.544644 -0.549635 -3.954633
v 3.739423 -0.560888 -4.049367
v 3.812273 -0.555329 -4.173071
v 4.193908 -0.717758 -4.336934
v 3.796282 -0.566147 -4.598228
v 3.278571 -0.638309 -4.678777
v 2.764557 -0.631312 -4.611789
v 2.231040 -0.536193 -4.428777
v 1.850860 -0.454247 -4.178777
v 1.914230 -0.454247 -3.920338
v 2.692218 -0.480480 -3.741462
v 3.278571 -0.589428 -3.654768
v 3.792584 -0.585604 -3.745764
v 4.178999 -0.655067 -3.891618
v 4.329131 -0.710576 -4.096129
v 4.577519 -0.788156 -4.386063
v 4.017446 -0.547386 -4.747317
v 3.278571 -0.585979 -4.885883
v 2.551645 -0.543535 -4.791149
v 1.526120 -0.371049 -4.532330
v 1.054360 -0.373664 -4.153911
v 1.282238 -0.370155 -3.786205
v 2.360245 -0.366470 -3.451109
v 3.278571 -0.543535 -3.364118
v 4.005496 -0.521567 -3.539131
v 4.561747 -0.637150 -3.733984
v 4.772298 -0.780479 -4.032509
v 4.860489 -0.669832 -4.465522
v 4.184007 -0.501861 -4.873252
v 3.278571 -0.505876 -5.044802
v 2.378900 -0.401533 -4.928777
v 1.297633 -0.260061 -4.611789
v 0.705296 -0.276582 -4.059963
v 0.970664 -0.273039 -3.527506
v 2.303587 -0.252077 -3.157762
v 3.278571 -0.429143 -3.104649
v 4.168869 -0.380336 -3.300298
v 4.840557 -0.432217 -3.669495
v 5.099044 -0.668871 -4.032509
v 5.032842 -0.478224 -4.535755
v 4.285360 -0.404449 -4.964709
v 3.278571 -0.396762 -5.144702
v 2.243397 -0.218092 -5.015293
v 1.290019 -0.128206 -4.661740
v 0.640181 -0.160533 -4.020649
v 0.974014 -0.152400 -3.310809
v 2.258722 -0.119169 -2.952790
v 3.278571 -0.271045 -2.917520
v 4.271569 -0.185594 -3.102364
v 5.015212 -0.251639 -3.633846
v 5.298133 -0.470042 -4.055661
v 5.085529 -0.278810 -4.582079
v 4.318029 -0.299113 -5.002874
v 3.278571 -0.280513 -5.178777
v 2.160941 -0.038303 -5.044802
v 1.274098 0.008493 -4.678777
v 0.799576 -0.034023 -4.007725
v 1.206212 -0.018404 -3.209667
v 2.249511 0.023157 -2.849030
v 3.278571 -0.084628 -2.821222
v 4.306599 0.058110 -2.976477
v 5.070374 -0.032429 -3.635736
v 5.359820 -0.239501 -4.086366
v 5.019303 -0.168160 -4.585414
v 4.281113 -0.213618 -4.980287
v 3.278571 -0.164544 -5.144702
v 2.137495 0.120755 -5.015293
v 1.294478 0.134722 -4.661740
v 1.008903 0.086288 -4.004136
v 1.385191 0.106007 -3.201871
v 2.283557 0.165077 -2.848318
v 3.278571 0.105732 -2.828551
v 4.271569 0.315195 -2.957961
v 5.002720 0.179504 -3.662856
v 5.284244 -0.039892 -4.106606
v 4.836529 -0.165349 -4.553407
v 4.175612 -0.117801 -4.904042
v 3.278571 -0.034137 -5.044802
v 2.186386 0.257391 -4.928777
v 1.324835 0.237181 -4.606008
v 1.187850 0.187057 -3.994379
v 1.544651 0.209490 -3.251821
v 2.355841 0.293422 -2.934834
v 3.278571 0.304089 -2.928452
v 4.168869 0.565328 -3.044477
v 4.820612 0.360653 -3.690889
v 5.069140 0.076152 -4.142196
v 4.544031 -0.094811 -4.508898
v 4.007621 -0.015130 -4.783354
v 3.278571 0.105608 -4.885883
v 2.234463 0.365409 -4.791149
v 1.553348 0.322960 -4.502870
v 1.429986 0.273013 -3.932200
v 1.829237 0.299281 -3.427021
v 2.469746 0.400309 -3.117434
v 3.278571 0.498663 -3.140998
v 4.005496 0.737150 -3.255140
v 4.537642 0.565991 -3.693988
v 4.732422 0.208395 -4.178777
v 4.168869 0.114867 -4.428777
v 3.792584 0.110288 -4.611789
v 3.278571 0.263936 -4.678777
v 2.457177 0.455670 -4.611789
v 2.014030 0.394720 -4.406072
v 1.988569 0.360790 -3.984913
v 2.271876 0.374987 -3.766089
v 2.674338 0.484107 -3.432605
v 3.278571 0.637427 -3.484632
v 3.792584 0.788156 -3.606571
v 4.168869 0.573516 -3.793971
v 4.306599 0.337282 -4.153674
v 3.739423 0.384029 -4.308186
v 3.544644 0.424615 -4.402921
v 3.275341 0.435799 -4.437596
v 2.882060 0.482419 -4.402921
v 2.544474 0.516940 -4.308186
v 2.517154 0.501591 -4.148554
v 2.665477 0.525631 -3.989235
v 2.978756 0.562161 -3.900474
v 3.278571 0.678274 -3.857547
v 3.544644 0.768377 -3.940676
v 3.739423 0.672301 -4.025359
v 3.810717 0.511517 -4.169775
v 3.278571 -0.606439 -4.178777
v 3.278571 0.608418 -4.178128
vt 0.131422 0.136523
vt 0.164951 0.144512
vt 0.216001 0.142015
vt 0.268406 0.136702
vt 0.322441 0.131330
vt 0.383876 0.127731
vt 0.443357 0.121250
vt 0.507871 0.113667
vt 0.568683 0.100880
vt 0.625000 0.087444
vt 0.672352 0.070600
vt 0.705919 0.056328
vt 0.736840 0.049950
vt 0.072796 0.161346
vt 0.142786 0.199454
vt 0.205633 0.188296
vt 0.261797 0.185028
vt 0.331338 0.205129
vt 0.389132 0.228596
vt 0.440294 0.224749
vt 0.513364 0.174638
vt 0.593479 0.149278
vt 0.655415 0.134407
vt 0.720422 0.122122
vt 0.774711 0.107027
vt 0.810976 0.079477
vt 0.024951 0.177259
vt 0.124095 0.239113
vt 0.195900 0.234399
vt 0.260553 0.238556
vt 0.337230 0.300203
vt 0.389690 0.307485
vt 0.440323 0.296368
vt 0.525336 0.255344
vt 0.605625 0.204514
vt 0.675683 0.190684
vt 0.740845 0.166776
vt 0.803589 0.138710
vt 0.862244 0.110742
vt 0.016761 0.227062
vt 0.114739 0.274971
vt 0.190629 0.278418
vt 0.256542 0.303789
vt 0.334872 0.353269
vt 0.401603 0.353061
vt 0.460315 0.351236
vt 0.547299 0.324358
vt 0.612109 0.267289
vt 0.687988 0.263142
vt 0.763978 0.242454
vt 0.819351 0.178458
vt 0.904298 0.156064
vt 0.007570 0.294817
vt 0.108423 0.318171
vt 0.185960 0.324605
vt 0.255161 0.377022
vt 0.329217 0.406524
vt 0.404200 0.396346
vt 0.479700 0.395883
vt 0.558378 0.386183
vt 0.619493 0.329949
vt 0.696485 0.341696
vt 0.786681 0.307659
vt 0.848683 0.240768
vt 0.944444 0.222747
vt 0.001953 0.367054
vt 0.104241 0.359917
vt 0.181885 0.369255
vt 0.257318 0.444377
vt 0.329261 0.460355
vt 0.405578 0.446652
vt 0.495653 0.440685
vt 0.564879 0.438961
vt 0.624452 0.394856
vt 0.699483 0.426161
vt 0.807956 0.385815
vt 0.875703 0.318122
vt 0.972514 0.295400
vt 0.002345 0.409295
vt 0.100653 0.393608
vt 0.178957 0.413107
vt 0.263150 0.503209
vt 0.332536 0.509028
vt 0.409380 0.496941
vt 0.503388 0.484989
vt 0.569603 0.486609
vt 0.628981 0.459042
vt 0.699724 0.508488
vt 0.818992 0.462388
vt 0.891717 0.389466
vt 0.982486 0.338584
vt 0.010673 0.427103
vt 0.101444 0.435572
vt 0.177404 0.466169
vt 0.271271 0.557394
vt 0.338603 0.548796
vt 0.415386 0.539691
vt 0.508033 0.524829
vt 0.572131 0.532224
vt 0.631451 0.529140
vt 0.701223 0.586206
vt 0.817843 0.530740
vt 0.900953 0.438391
vt 0.990105 0.358092
vt 0.025899 0.467469
vt 0.107126 0.485937
vt 0.179463 0.528984
vt 0.286317 0.607251
vt 0.349462 0.591483
vt 0.430247 0.578298
vt 0.503703 0.578317
vt 0.575931 0.580169
vt 0.633327 0.606841
vt 0.706202 0.645195
vt 0.800591 0.609888
vt 0.908006 0.500574
vt 0.998047 0.399898
vt 0.068656 0.558802
vt 0.119307 0.550960
vt 0.191830 0.604690
vt 0.295312 0.660098
vt 0.354067 0.645709
vt 0.434836 0.645961
vt 0.484574 0.656477
vt 0.570307 0.648407
vt 0.642253 0.687422
vt 0.725664 0.694071
vt 0.813327 0.643578
vt 0.902394 0.567923
vt 0.987562 0.492146
vt 0.147735 0.664027
vt 0.178358 0.682509
vt 0.214179 0.691764
vt 0.280343 0.706172
vt 0.355294 0.715014
vt 0.416451 0.722724
vt 0.485534 0.734035
vt 0.556420 0.747618
vt 0.657578 0.749250
vt 0.739034 0.735869
vt 0.809472 0.715079
vt 0.895134 0.660284
vt 0.939761 0.609499
vt 0.131255 0.093692
vt 0.169151 0.093207
vt 0.236601 0.087397
vt 0.284322 0.082848
vt 0.345619 0.077818
vt 0.404430 0.072352
vt 0.463751 0.064242
vt 0.542486 0.051610
vt 0.583673 0.042845
vt 0.647492 0.023597
vt 0.687111 0.010461
vt 0.742476 0.001953
vt 0.129062 0.740317
vt 0.166532 0.761055
vt 0.238138 0.773011
vt 0.274796 0.781701
vt 0.369366 0.800327
vt 0.469968 0.810300
vt 0.554226 0.814060
vt 0.604089 0.810270
vt 0.691132 0.813185
vt 0.847647 0.764990
vt 0.882249 0.729423
vt 0.932425 0.701522
vn -0.133078 -0.989333 0.059255
vn 0.071352 -0.997435 -0.005736
vn -0.019845 -0.988166 -0.152101
vn -0.210232 -0.974582 -0.077413
vn 0.048677 -0.998815 -0.000048
vn 0.028567 -0.986610 -0.160573
vn -0.052754 -0.998605 0.002113
vn -0.125137 -0.979047 -0.160646
vn -0.121229 -0.991168 0.053759
vn -0.191153 -0.978834 -0.073108
vn -0.143845 -0.981313 0.127802
vn -0.141169 -0.989974 0.004725
vn -0.082202 -0.970877 0.225034
vn -0.099028 -0.976123 0.193331
vn -0.104200 -0.987361 0.119416
vn -0.132610 -0.971152 0.198188
vn -0.062266 -0.997862 -0.019871
vn -0.087075 -0.991238 0.099323
vn -0.023918 -0.998989 -0.038072
vn -0.024205 -0.991470 0.128070
vn -0.139552 -0.990021 -0.019595
vn -0.135473 -0.969746 0.203075
vn -0.219658 -0.970334 0.101008
vn -0.183732 -0.967610 0.173127
vn 0.001238 -0.928826 -0.370515
vn 0.027374 -0.960944 -0.275385
vn -0.013472 -0.933408 -0.358564
vn -0.189655 -0.915077 -0.355902
vn -0.223718 -0.930499 -0.290038
vn -0.227518 -0.969181 -0.094468
vn -0.113341 -0.970867 0.211118
vn -0.120833 -0.949186 0.290594
vn -0.062986 -0.950697 0.303658
vn 0.088177 -0.904729 0.416761
vn 0.112086 -0.843035 0.526050
vn 0.191241 -0.949007 0.250626
vn 0.143607 -0.778328 -0.611213
vn 0.350055 -0.808329 -0.473355
vn -0.038191 -0.775457 -0.630245
vn -0.237482 -0.712235 -0.660548
vn -0.410014 -0.645213 -0.644662
vn -0.584543 -0.791295 -0.179336
vn -0.250414 -0.898209 0.361266
vn -0.133072 -0.891328 0.433390
vn -0.015560 -0.860716 0.508848
vn 0.217433 -0.771916 0.597384
vn 0.352345 -0.674173 0.649110
vn 0.549390 -0.806005 0.220288
vn 0.278334 -0.526107 -0.803580
vn 0.586297 -0.534438 -0.608795
vn -0.035278 -0.489765 -0.871140
vn -0.265012 -0.393674 -0.880221
vn -0.514097 -0.204950 -0.832886
vn -0.978225 0.180615 -0.102248
vn -0.527004 -0.434930 0.730139
vn -0.155165 -0.700876 0.696201
vn 0.040288 -0.662690 0.747810
vn 0.344159 -0.545026 0.764527
vn 0.575998 -0.416729 0.703252
vn 0.846835 -0.512160 0.143396
vn 0.346521 -0.076369 -0.934928
vn 0.715338 -0.072721 -0.694984
vn -0.002103 -0.042596 -0.999090
vn -0.247347 -0.023838 -0.968634
vn -0.580494 0.232607 -0.780334
vn -0.682988 0.728516 -0.052844
vn -0.542539 0.275412 0.793599
vn -0.187986 -0.197827 0.962043
vn 0.072753 -0.282787 0.956420
vn 0.433334 -0.142404 0.889912
vn 0.737048 -0.008206 0.675791
vn 0.998661 -0.010376 0.050679
vn 0.241610 0.593298 -0.767868
vn 0.474752 0.611213 -0.633269
vn 0.066218 0.438594 -0.896243
vn -0.169694 0.403111 -0.899281
vn -0.529949 0.538634 -0.655002
vn -0.596597 0.802027 0.028706
vn -0.468803 0.670636 0.574866
vn -0.165629 0.377052 0.911262
vn 0.048161 0.209123 0.976703
vn 0.413246 0.321357 0.852031
vn 0.741044 0.472710 0.476864
vn 0.787803 0.606984 -0.104581
vn 0.203026 0.824363 -0.528399
vn 0.222669 0.842493 -0.490535
vn 0.126610 0.687733 -0.714838
vn -0.050252 0.714262 -0.698073
vn -0.422780 0.829349 -0.365291
vn -0.452783 0.888777 0.071155
vn -0.341258 0.872821 0.348893
vn -0.139863 0.773196 0.618553
vn -0.033205 0.602223 0.797638
vn 0.289630 0.677512 0.676086
vn 0.617644 0.770541 0.157424
vn 0.417237 0.821551 -0.388547
vn 0.239510 0.843443 -0.480873
vn 0.237348 0.814904 -0.528771
vn 0.169018 0.791215 -0.587718
vn -0.029038 0.881808 -0.470713
vn -0.227158 0.964147 -0.137185
vn -0.237206 0.968169 0.079887
vn -0.212419 0.968069 0.133123
vn -0.159973 0.940402 0.300088
vn -0.142261 0.861141 0.488055
vn 0.103432 0.929869 0.353051
vn 0.418732 0.903120 -0.095070
vn 0.295499 0.781475 -0.549525
vn 0.281834 0.799371 -0.530636
vn 0.259576 0.752920 -0.604758
vn 0.180087 0.806301 -0.563425
vn 0.026095 0.910139 -0.413481
vn -0.171997 0.984388 -0.037379
vn -0.165249 0.983381 0.075192
vn -0.203045 0.976344 0.074338
vn -0.207690 0.969697 0.128654
vn -0.230913 0.950393 0.208405
vn 0.007500 0.999430 0.032914
vn 0.277081 0.890261 -0.361470
vn 0.232598 0.765769 -0.599580
vn 0.272385 0.763065 -0.586122
vn 0.280390 0.714755 -0.640708
vn 0.150890 0.812746 -0.562741
vn 0.060335 0.890815 -0.450343
vn -0.149730 0.986131 -0.071603
vn -0.217207 0.971356 0.096383
vn -0.219403 0.972404 0.079329
vn -0.251299 0.967361 0.032577
vn -0.289852 0.956716 0.026072
vn -0.034062 0.989611 -0.139675
vn 0.316972 0.842066 -0.436411
vn 0.284251 0.745142 -0.603295
vn 0.029577 -0.983680 0.177477
vn -0.055361 0.914896 -0.399875
s 1
g pSphere13
usemtl initialShadingGroup
f 1/1/1 2/2/2 14/15/3 13/14/4
f 2/2/2 3/3/5 15/16/6 14/15/3
f 3/3/5 4/4/7 16/17/8 15/16/6
f 4/4/7 5/5/9 17/18/10 16/17/8
f 5/5/9 6/6/11 18/19/12 17/18/10
f 6/6/11 7/7/13 19/20/14 18/19/12
f 7/7/13 8/8/15 20/21/16 19/20/14
f 8/8/15 9/9/17 21/22/18 20/21/16
f 9/9/17 10/10/19 22/23/20 21/22/18
f 10/10/19 11/11/21 23/24/22 22/23/20
f 11/11/21 12/12/23 24/25/24 23/24/22
f 12/12/23 1/13/1 13/26/4 24/25/24
f 13/14/4 14/15/3 26/28/25 25/27/26
f 14/15/3 15/16/6 27/29/27 26/28/25
f 15/16/6 16/17/8 28/30/28 27/29/27
f 16/17/8 17/18/10 29/31/29 28/30/28
f 17/18/10 18/19/12 30/32/30 29/31/29
f 18/19/12 19/20/14 31/33/31 30/32/30
f 19/20/14 20/21/16 32/34/32 31/33/31
f 20/21/16 21/22/18 33/35/33 32/34/32
f 21/22/18 22/23/20 34/36/34 33/35/33
f 22/23/20 23/24/22 35/37/35 34/36/34
f 23/24/22 24/25/24 36/38/36 35/37/35
f 24/25/24 13/26/4 25/39/26 36/38/36
f 25/27/26 26/28/25 38/41/37 37/40/38
f 26/28/25 27/29/27 39/42/39 38/41/37
f 27/29/27 28/30/28 40/43/40 39/42/39
f 28/30/28 29/31/29 41/44/41 40/43/40
f 29/31/29 30/32/30 42/45/42 41/44/41
f 30/32/30 31/33/31 43/46/43 42/45/42
f 31/33/31 32/34/32 44/47/44 43/46/43
f 32/34/32 33/35/33 45/48/45 44/47/44
f 33/35/33 34/36/34 46/49/46 45/48/45
f 34/36/34 35/37/35 47/50/47 46/49/46
f 35/37/35 36/38/36 48/51/48 47/50/47
f 36/38/36 25/39/26 37/52/38 48/51/48
f 37/40/38 38/41/37 50/54/49 49/53/50
f 38/41/37 39/42/39 51/55/51 50/54/49
f 39/42/39 40/43/40 52/56/52 51/55/51
f 40/43/40 41/44/41 53/57/53 52/56/52
f 41/44/41 42/45/42 54/58/54 53/57/53
f 42/45/42 43/46/43 55/59/55 54/58/54
f 43/46/43 44/47/44 56/60/56 55/59/55
f 44/47/44 45/48/45 57/61/57 56/60/56
f 45/48/45 46/49/46 58/62/58 57/61/57
f 46/49/46 47/50/47 59/63/59 58/62/58
f 47/50/47 48/51/48 60/64/60 59/63/59
f 48/51/48 37/52/38 49/65/50 60/64/60
f 49/53/50 50/54/49 62/67/61 61/66/62
f 50/54/49 51/55/51 63/68/63 62/67/61
f 51/55/51 52/56/52 64/69/64 63/68/63
f 52/56/52 53/57/53 65/70/65 64/69/64
f 53/57/53 54/58/54 66/71/66 65/70/65
f 54/58/54 55/59/55 67/72/67 66/71/66
f 55/59/55 56/60/56 68/73/68 67/72/67
f 56/60/56 57/61/57 69/74/69 68/73/68
f 57/61/57 58/62/58 70/75/70 69/74/69
f 58/62/58 59/63/59 71/76/71 70/75/70
f 59/63/59 60/64/60 72/77/72 71/76/71
f 60/64/60 49/65/50 61/78/62 72/77/72
f 61/66/62 62/67/61 74/80/73 73/79/74
f 62/67/61 63/68/63 75/81/75 74/80/73
f 63/68/63 64/69/64 76/82/76 75/81/75
f 64/69/64 65/70/65 77/83/77 76/82/76
f 65/70/65 66/71/66 78/84/78 77/83/77
f 66/71/66 67/72/67 79/85/79 78/84/78
f 67/72/67 68/73/68 80/86/80 79/85/79
f 68/73/68 69/74/69 81/87/81 80/86/80
f 69/74/69 70/75/70 82/88/82 81/87/81
f 70/75/70 71/76/71 83/89/83 82/88/82
f 71/76/71 72/77/72 84/90/84 83/89/83
f 72/77/72 61/78/62 73/91/74 84/90/84
f 73/79/74 74/80/73 86/93/85 85/92/86
f 74/80/73 75/81/75 87/94/87 86/93/85
f 75/81/75 76/82/76 88/95/88 87/94/87
f 76/82/76 77/83/77 89/96/89 88/95/88
f 77/83/77 78/84/78 90/97/90 89/96/89
f 78/84/78 79/85/79 91/98/91 90/97/90
f 79/85/79 80/86/80 92/99/92 91/98/91
f 80/86/80 81/87/81 93/100/93 92/99/92
f 81/87/81 82/88/82 94/101/94 93/100/93
f 82/88/82 83/89/83 95/102/95 94/101/94
f 83/89/83 84/90/84 96/103/96 95/102/95
f 84/90/84 73/91/74 85/104/86 96/103/96
f 85/92/86 86/93/85 98/106/97 97/105/98
f 86/93/85 87/94/87 99/107/99 98/106/97
f 87/94/87 88/95/88 100/108/100 99/107/99
f 88/95/88 89/96/89 101/109/101 100/108/100
f 89/96/89 90/97/90 102/110/102 101/109/101
f 90/97/90 91/98/91 103/111/103 102/110/102
f 91/98/91 92/99/92 104/112/104 103/111/103
f 92/99/92 93/100/93 105/113/105 104/112/104
f 93/100/93 94/101/94 106/114/106 105/113/105
f 94/101/94 95/102/95 107/115/107 106/114/106
f 95/102/95 96/103/96 108/116/108 107/115/107
f 96/103/96 85/104/86 97/117/98 108/116/108
f 97/105/98 98/106/97 110/119/109 109/118/110
f 98/106/97 99/107/99 111/120/111 110/119/109
f 99/107/99 100/108/100 112/121/112 111/120/111
f 100/108/100 101/109/101 113/122/113 112/121/112
f 101/109/101 102/110/102 114/123/114 113/122/113
f 102/110/102 103/111/103 115/124/115 114/123/114
f 103/111/103 104/112/104 116/125/116 115/124/115
f 104/112/104 105/113/105 117/126/117 116/125/116
f 105/113/105 106/114/106 118/127/118 117/126/117
f 106/114/106 107/115/107 119/128/119 118/127/118
f 107/115/107 108/116/108 120/129/120 119/128/119
f 108/116/108 97/117/98 109/130/110 120/129/120
f 109/118/110 110/119/109 122/132/121 121/131/122
f 110/119/109 111/120/111 123/133/123 122/132/121
f 111/120/111 112/121/112 124/134/124 123/133/123
f 112/121/112 113/122/113 125/135/125 124/134/124
f 113/122/113 114/123/114 126/136/126 125/135/125
f 114/123/114 115/124/115 127/137/127 126/136/126
f 115/124/115 116/125/116 128/138/128 127/137/127
f 116/125/116 117/126/117 129/139/129 128/138/128
f 117/126/117 118/127/118 130/140/130 129/139/129
f 118/127/118 119/128/119 131/141/131 130/140/130
f 119/128/119 120/129/120 132/142/132 131/141/131
f 120/129/120 109/130/110 121/143/122 132/142/132
f 2/2/2 1/1/1 133/144/133
f 3/3/5 2/2/2 133/145/133
f 4/4/7 3/3/5 133/146/133
f 5/5/9 4/4/7 133/147/133
f 6/6/11 5/5/9 133/148/133
f 7/7/13 6/6/11 133/149/133
f 8/8/15 7/7/13 133/150/133
f 9/9/17 8/8/15 133/151/133
f 10/10/19 9/9/17 133/152/133
f 11/11/21 10/10/19 133/153/133
f 12/12/23 11/11/21 133/154/133
f 1/13/1 12/12/23 133/155/133
f 121/131/122 122/132/121 134/156/134
f 122/132/121 123/133/123 134/157/134
f 123/133/123 124/134/124 134/158/134
f 124/134/124 125/135/125 134/159/134
f 125/135/125 126/136/126 134/160/134
f 126/136/126 127/137/127 134/161/134
f 127/137/127 128/138/128 134/162/134
f 128/138/128 129/139/129 134/163/134
f 129/139/129 130/140/130 134/164/134
f 130/140/130 131/141/131 134/165/134
f 131/141/131 132/142/132 134/166/134
f 132/142/132 121/143/122 134/167/134
