# This file uses centimeters as units for non-parametric coordinates.

mtllib Stairs.mtl
g default
v -6.005929 0.000000 -6.007795
v 6.005929 0.000000 -6.007795
v -6.005929 0.140672 1.970003
v -5.975900 0.140672 2.030283
v -5.975900 0.200952 1.970003
v 5.975900 0.200952 1.970003
v 5.975900 0.140672 2.030283
v 6.005929 0.140672 1.970003
v -5.975900 0.000000 2.030283
v -6.005929 0.000000 1.970003
v 6.005929 0.000000 1.970003
v 5.975900 0.000000 2.030283
v -6.005929 0.140672 1.166195
v -5.975900 0.200952 1.226475
v 5.975900 0.200952 1.226475
v 6.005929 0.140672 1.166195
v -6.005929 0.341624 1.166195
v -5.975900 0.341624 1.226475
v -5.975900 0.401904 1.166195
v 5.975900 0.401904 1.166195
v 5.975900 0.341624 1.226475
v 6.005929 0.341624 1.166195
v 5.975900 0.401904 0.422667
v 6.005929 0.341624 0.362388
v -6.005929 0.341624 0.362388
v -5.975900 0.401904 0.422667
v -6.005929 0.542576 0.362388
v -5.975900 0.542576 0.422667
v -5.975900 0.602856 0.362388
v 5.975900 0.602856 0.362388
v 5.975900 0.542576 0.422667
v 6.005929 0.542576 0.362388
v 5.975900 0.602856 -0.381141
v 6.005929 0.542576 -0.441420
v -6.005929 0.542576 -0.441420
v -5.975900 0.602856 -0.381141
v -6.005929 0.743528 -0.441420
v -5.975900 0.743528 -0.381141
v -5.975900 0.803808 -0.441420
v 5.975900 0.803808 -0.441420
v 5.975900 0.743528 -0.381141
v 6.005929 0.743528 -0.441420
v 5.975900 0.803808 -1.184948
v 6.005929 0.743528 -1.245228
v -6.005929 0.743528 -1.245228
v -5.975900 0.803808 -1.184948
v -6.005929 0.944480 -1.245228
v -5.975900 0.944480 -1.184948
v -5.975900 1.004760 -1.245228
v 5.975900 1.004760 -1.245228
v 5.975900 0.944480 -1.184948
v 6.005929 0.944480 -1.245228
v 5.975900 1.004760 -1.988756
v 6.005929 0.944480 -2.049036
v -6.005929 0.944480 -2.049036
v -5.975900 1.004760 -1.988756
v -6.005929 1.145432 -2.049036
v -5.975900 1.145432 -1.988756
v -5.975900 1.205712 -2.049036
v 5.975900 1.205712 -2.049036
v 5.975900 1.145432 -1.988756
v 6.005929 1.145432 -2.049036
v 5.975900 1.205712 -2.792564
v 6.005929 1.145432 -2.852843
v -6.005929 1.145432 -2.852843
v -5.975900 1.205712 -2.792564
v -6.005929 1.346384 -2.852843
v -5.975900 1.346384 -2.792564
v -5.975900 1.406664 -2.852843
v 5.975900 1.406664 -2.852843
v 5.975900 1.346384 -2.792564
v 6.005929 1.346384 -2.852843
v 5.975900 1.406664 -3.596372
v 6.005929 1.346384 -3.656651
v -6.005929 1.346384 -3.656651
v -5.975900 1.406664 -3.596372
v -6.005929 1.547336 -3.656651
v -5.975900 1.547336 -3.596372
v -5.975900 1.607616 -3.656651
v 5.975900 1.607616 -3.656651
v 5.975900 1.547336 -3.596372
v 6.005929 1.547336 -3.656651
v 5.975900 1.607616 -4.400179
v 6.005929 1.547336 -4.460459
v -6.005929 1.547336 -4.460459
v -5.975900 1.607616 -4.400179
v -6.005929 1.748288 -4.460459
v -5.975900 1.748288 -4.400179
v -5.975900 1.808568 -4.460459
v 5.975900 1.808568 -4.460459
v 5.975900 1.748288 -4.400179
v 6.005929 1.748288 -4.460459
v 5.975900 1.808568 -5.203987
v 6.005929 1.748288 -5.264267
v -6.005929 1.748288 -5.264267
v -5.975900 1.808568 -5.203987
v -6.005929 1.949240 -5.264267
v -5.975900 1.949240 -5.203987
v -5.975900 2.009520 -5.264267
v 5.975900 2.009520 -5.264267
v 5.975900 1.949240 -5.203987
v 6.005929 1.949240 -5.264267
v 6.005929 1.949240 -6.007795
v 5.975900 2.009520 -6.007795
v -6.005929 1.949240 -6.007795
v -5.975900 2.009520 -6.007795
vt 0.926889 0.654277
vt 0.074916 0.665371
vt 0.995759 0.653380
vt 0.819039 0.016371
vt 0.003906 0.664173
vt 0.006056 0.666271
vt 0.116671 0.018822
vt 0.099859 0.065953
vt 0.073629 0.947295
vt 0.073258 0.918901
vt 0.113292 0.015820
vt 0.080755 0.949334
vt 0.078598 0.947231
vt 0.094871 0.066520
vt 0.117165 0.013210
vt 0.935523 0.936066
vt 0.116252 0.003906
vt 0.935160 0.907677
vt 0.930558 0.936138
vt 0.928458 0.938297
vt 0.066159 0.918993
vt 0.111747 0.005329
vt 0.942267 0.907574
vt 0.792266 0.050495
vt 0.792351 0.044858
vt 0.795896 0.047826
vt 0.065793 0.890594
vt 0.803514 0.097449
vt 0.808423 0.098532
vt 0.941891 0.879186
vt 0.948993 0.879090
vt 0.798649 0.037566
vt 0.058694 0.890687
vt 0.794105 0.035706
vt 0.098534 0.077941
vt 0.102056 0.075047
vt 0.058324 0.862292
vt 0.803703 0.109446
vt 0.800411 0.106305
vt 0.948623 0.850695
vt 0.955724 0.850599
vt 0.101984 0.080697
vt 0.051221 0.862376
vt 0.087168 0.128347
vt 0.082222 0.129073
vt 0.800053 0.111924
vt 0.050851 0.833981
vt 0.809951 0.159022
vt 0.814822 0.160203
vt 0.955354 0.822205
vt 0.962456 0.822109
vt 0.809976 0.170984
vt 0.043753 0.834073
vt 0.806728 0.167860
vt 0.086118 0.140354
vt 0.089568 0.137433
vt 0.043385 0.805676
vt 0.089591 0.143092
vt 0.075485 0.190883
vt 0.962084 0.793702
vt 0.969175 0.793619
vt 0.070569 0.191638
vt 0.036280 0.805762
vt 0.806326 0.173472
vt 0.815936 0.220471
vt 0.820786 0.221631
vt 0.035903 0.777362
vt 0.815911 0.232418
vt 0.812680 0.229312
vt 0.968809 0.765206
vt 0.975906 0.765129
vt 0.074591 0.202908
vt 0.028811 0.777460
vt 0.077997 0.199967
vt 0.078087 0.205633
vt 0.064478 0.253529
vt 0.028445 0.749061
vt 0.059582 0.254308
vt 0.812261 0.234920
vt 0.975542 0.736727
vt 0.982650 0.736637
vt 0.821789 0.281832
vt 0.021345 0.749155
vt 0.826627 0.282969
vt 0.821761 0.293770
vt 0.818532 0.290681
vt 0.020968 0.720754
vt 0.063692 0.265567
vt 0.067070 0.262609
vt 0.982279 0.708230
vt 0.989375 0.708141
vt 0.067205 0.268277
vt 0.013870 0.720847
vt 0.053927 0.316257
vt 0.049042 0.317060
vt 0.818116 0.296287
vt 0.013509 0.692454
vt 0.827729 0.343133
vt 0.832564 0.344246
vt 0.989010 0.679739
vt 0.996094 0.679651
vt 0.827742 0.355066
vt 0.006405 0.692540
vt 0.824501 0.351993
vt 0.053204 0.328303
vt 0.056567 0.325329
vt 0.056731 0.330998
vt 0.043620 0.379041
vt 0.038737 0.379866
vt 0.824107 0.357599
vt 0.833967 0.404396
vt 0.838808 0.405488
vt 0.834067 0.416331
vt 0.830800 0.413271
vt 0.042915 0.391090
vt 0.046278 0.388101
vt 0.046451 0.393769
vt 0.033344 0.441856
vt 0.028453 0.442701
vt 0.830446 0.418879
vt 0.840716 0.465646
vt 0.845574 0.466717
vt 0.840949 0.477586
vt 0.837641 0.474538
vt 0.032611 0.453902
vt 0.035988 0.450900
vt 0.036152 0.456565
vt 0.022887 0.504679
vt 0.017979 0.505548
vt 0.837346 0.480151
vt 0.848189 0.526906
vt 0.853072 0.527962
vt 0.848604 0.538874
vt 0.845231 0.535817
vt 0.022076 0.516733
vt 0.025492 0.513701
vt 0.025635 0.519360
vt 0.012323 0.567553
vt 0.007363 0.568541
vt 0.845006 0.541435
vt 0.856340 0.588281
vt 0.861279 0.589416
vt 0.856904 0.600689
vt 0.853343 0.597154
vt 0.011473 0.580021
vt 0.015039 0.576493
vt 0.015316 0.582134
vt 0.003906 0.630169
vt 0.008308 0.631413
vt 0.853008 0.602765
vt 0.859125 0.651246
vt 0.863496 0.650079
vt 0.738502 0.028916
vt 0.536354 0.019306
vt 0.689622 0.014600
vt 0.690987 0.003906
vt 0.407970 0.004288
vt 0.407716 0.003906
vt 0.609622 0.014162
vt 0.611641 0.003906
vn 0.000000 0.000000 -1.000000
vn 0.000000 0.000000 -1.000000
vn 0.000000 0.000000 -1.000000
vn 0.000000 0.000000 -1.000000
vn 0.000000 0.000000 -1.000000
vn 0.000000 0.000000 -1.000000
vn -0.004853 0.997194 0.074706
vn -0.009633 0.982490 0.186065
vn -0.989578 0.139969 0.033833
vn -0.999986 0.005067 0.001267
vn -0.004190 0.287117 0.957886
vn -0.005031 0.000000 0.999987
vn -0.999835 0.000000 0.018138
vn 0.004853 0.997194 0.074707
vn 0.004190 0.287118 0.957886
vn 0.989578 0.139969 0.033833
vn 0.009633 0.982490 0.186065
vn 0.999986 0.005067 0.001267
vn 0.999835 0.000000 0.018138
vn 0.005031 0.000000 0.999987
vn -0.993649 0.108822 0.028636
vn -0.004190 0.287118 0.957886
vn 0.993649 0.108822 0.028636
vn 0.004190 0.287117 0.957886
vn -0.004853 0.997194 0.074706
vn -0.009633 0.982490 0.186065
vn -0.999992 0.003911 0.000978
vn 0.004853 0.997194 0.074707
vn 0.009633 0.982490 0.186065
vn 0.999992 0.003911 0.000978
vn 0.993649 0.108822 0.028636
vn 0.004190 0.287117 0.957886
vn -0.993649 0.108822 0.028636
vn -0.004190 0.287118 0.957886
vn -0.004853 0.997194 0.074706
vn -0.009633 0.982490 0.186065
vn -0.999992 0.003911 0.000978
vn 0.004853 0.997194 0.074707
vn 0.009633 0.982490 0.186065
vn 0.999992 0.003911 0.000978
vn 0.993649 0.108821 0.028636
vn 0.004190 0.287117 0.957886
vn -0.993649 0.108821 0.028636
vn -0.004190 0.287118 0.957886
vn -0.004853 0.997194 0.074706
vn -0.009633 0.982490 0.186065
vn -0.999992 0.003910 0.000978
vn 0.004853 0.997194 0.074706
vn 0.009633 0.982490 0.186065
vn 0.999992 0.003911 0.000978
vn 0.993649 0.108821 0.028636
vn 0.004190 0.287117 0.957886
vn -0.993649 0.108821 0.028636
vn -0.004190 0.287118 0.957886
vn -0.004853 0.997194 0.074706
vn -0.009633 0.982490 0.186065
vn -0.999992 0.003909 0.000978
vn 0.004853 0.997194 0.074706
vn 0.009633 0.982490 0.186065
vn 0.999992 0.003909 0.000978
vn 0.993649 0.108821 0.028636
vn 0.004190 0.287117 0.957886
vn -0.993649 0.108821 0.028636
vn -0.004190 0.287118 0.957886
vn -0.004853 0.997194 0.074706
vn -0.009633 0.982490 0.186065
vn -0.999992 0.003911 0.000978
vn 0.004853 0.997194 0.074706
vn 0.009633 0.982490 0.186065
vn 0.999992 0.003911 0.000978
vn 0.993649 0.108821 0.028636
vn 0.004190 0.287117 0.957886
vn -0.993649 0.108821 0.028636
vn -0.004190 0.287118 0.957886
vn -0.004853 0.997194 0.074706
vn -0.009633 0.982490 0.186065
vn -0.999992 0.003911 0.000978
vn 0.004853 0.997194 0.074707
vn 0.009633 0.982490 0.186065
vn 0.999992 0.003910 0.000978
vn 0.993649 0.108822 0.028636
vn 0.004190 0.287117 0.957886
vn -0.993649 0.108822 0.028636
vn -0.004190 0.287118 0.957886
vn -0.004853 0.997194 0.074706
vn -0.009633 0.982490 0.186065
vn -0.999992 0.003911 0.000978
vn 0.004853 0.997194 0.074706
vn 0.009633 0.982490 0.186065
vn 0.999992 0.003911 0.000978
vn 0.993649 0.108822 0.028636
vn 0.004190 0.287117 0.957887
vn -0.993649 0.108822 0.028636
vn -0.004190 0.287118 0.957886
vn -0.004853 0.997194 0.074706
vn -0.009633 0.982490 0.186065
vn -0.999991 0.004019 0.001005
vn 0.004853 0.997194 0.074707
vn 0.009633 0.982490 0.186065
vn 0.999991 0.004019 0.001005
vn 0.992935 0.114720 0.030320
vn 0.004190 0.287117 0.957886
vn -0.992935 0.114724 0.030320
vn -0.004190 0.287118 0.957886
vn -0.004853 0.997194 0.074706
vn -0.999847 0.017499 0.000000
vn -0.005031 0.999987 0.000000
vn 0.004853 0.997194 0.074706
vn 0.005031 0.999987 0.000000
vn 0.999847 0.017500 0.000000
vn 1.000000 -0.000000 0.000000
vn -1.000000 -0.000000 0.000000
vn 0.000000 -1.000000 0.000000
vn 0.000000 -1.000000 0.000000
vn 0.000000 -1.000000 0.000000
vn 0.000000 -1.000000 0.000000
vn 0.000000 -1.000000 0.000000
vn 0.000000 -1.000000 0.000000
vn 0.000000 -1.000000 0.000000
vn 0.000000 -1.000000 0.000000
vn 0.000000 -1.000000 0.000000
vn 0.000000 -1.000000 0.000000
s 1
g pCube1
usemtl initialShadingGroup
f 2/160/1 1/153/2 103/159/3
f 103/158/3 1/154/2 104/157/4
f 104/4/4 1/155/2 106/156/5
f 1/2/2 105/6/6 106/5/5
s 2
f 5/7/7 14/8/8 3/11/9
f 3/11/9 14/8/8 13/14/10
f 4/15/11 3/11/9 9/17/12
f 9/17/12 3/11/9 10/22/13
f 5/7/7 4/15/11 6/24/14
f 6/24/14 4/15/11 7/25/15
f 6/24/14 8/26/16 15/28/17
f 15/28/17 8/26/16 16/29/18
f 8/26/16 7/25/15 11/32/19
f 11/32/19 7/25/15 12/34/20
f 13/14/10 14/8/8 17/35/21
f 17/35/21 14/8/8 18/36/22
f 16/29/18 22/38/23 15/28/17
f 15/28/17 22/38/23 21/39/24
f 19/42/25 26/44/26 17/35/21
f 17/35/21 26/44/26 25/45/27
f 19/42/25 18/36/22 20/46/28
f 20/46/28 18/36/22 21/39/24
f 20/46/28 22/38/23 23/48/29
f 23/48/29 22/38/23 24/49/30
f 24/49/30 32/52/31 23/48/29
f 23/48/29 32/52/31 31/54/32
f 25/45/27 26/44/26 27/55/33
f 27/55/33 26/44/26 28/56/34
f 29/58/35 36/59/36 27/55/33
f 27/55/33 36/59/36 35/62/37
f 29/58/35 28/56/34 30/64/38
f 30/64/38 28/56/34 31/54/32
f 30/64/38 32/52/31 33/65/39
f 33/65/39 32/52/31 34/66/40
f 34/66/40 42/68/41 33/65/39
f 33/65/39 42/68/41 41/69/42
f 35/62/37 36/59/36 37/72/43
f 37/72/43 36/59/36 38/74/44
f 39/75/45 46/76/46 37/72/43
f 37/72/43 46/76/46 45/78/47
f 39/75/45 38/74/44 40/79/48
f 40/79/48 38/74/44 41/69/42
f 40/79/48 42/68/41 43/82/49
f 43/82/49 42/68/41 44/84/50
f 44/84/50 52/85/51 43/82/49
f 43/82/49 52/85/51 51/86/52
f 45/78/47 46/76/46 47/88/53
f 47/88/53 46/76/46 48/89/54
f 49/92/55 56/94/56 47/88/53
f 47/88/53 56/94/56 55/95/57
f 49/92/55 48/89/54 50/96/58
f 50/96/58 48/89/54 51/86/52
f 50/96/58 52/85/51 53/98/59
f 53/98/59 52/85/51 54/99/60
f 54/99/60 62/102/61 53/98/59
f 53/98/59 62/102/61 61/104/62
f 55/95/57 56/94/56 57/105/63
f 57/105/63 56/94/56 58/106/64
f 59/107/65 66/108/66 57/105/63
f 57/105/63 66/108/66 65/109/67
f 59/107/65 58/106/64 60/110/68
f 60/110/68 58/106/64 61/104/62
f 60/110/68 62/102/61 63/111/69
f 63/111/69 62/102/61 64/112/70
f 64/112/70 72/113/71 63/111/69
f 63/111/69 72/113/71 71/114/72
f 65/109/67 66/108/66 67/115/73
f 67/115/73 66/108/66 68/116/74
f 69/117/75 76/118/76 67/115/73
f 67/115/73 76/118/76 75/119/77
f 69/117/75 68/116/74 70/120/78
f 70/120/78 68/116/74 71/114/72
f 70/120/78 72/113/71 73/121/79
f 73/121/79 72/113/71 74/122/80
f 74/122/80 82/123/81 73/121/79
f 73/121/79 82/123/81 81/124/82
f 75/119/77 76/118/76 77/125/83
f 77/125/83 76/118/76 78/126/84
f 79/127/85 86/128/86 77/125/83
f 77/125/83 86/128/86 85/129/87
f 79/127/85 78/126/84 80/130/88
f 80/130/88 78/126/84 81/124/82
f 80/130/88 82/123/81 83/131/89
f 83/131/89 82/123/81 84/132/90
f 84/132/90 92/133/91 83/131/89
f 83/131/89 92/133/91 91/134/92
f 85/129/87 86/128/86 87/135/93
f 87/135/93 86/128/86 88/136/94
f 89/137/95 96/138/96 87/135/93
f 87/135/93 96/138/96 95/139/97
f 89/137/95 88/136/94 90/140/98
f 90/140/98 88/136/94 91/134/92
f 90/140/98 92/133/91 93/141/99
f 93/141/99 92/133/91 94/142/100
f 94/142/100 102/143/101 93/141/99
f 93/141/99 102/143/101 101/144/102
f 95/139/97 96/138/96 97/145/103
f 97/145/103 96/138/96 98/146/104
f 97/145/103 99/147/105 105/148/106
f 105/148/106 99/147/105 106/149/107
f 99/147/105 98/146/104 100/150/108
f 100/150/108 98/146/104 101/144/102
f 100/150/108 102/143/101 104/151/109
f 104/151/109 102/143/101 103/152/110
f 4/15/11 9/17/12 7/25/15
f 7/25/15 9/17/12 12/34/20
f 5/7/7 6/24/14 14/8/8
f 14/8/8 6/24/14 15/28/17
f 19/42/25 20/46/28 26/44/26
f 26/44/26 20/46/28 23/48/29
f 29/58/35 30/64/38 36/59/36
f 36/59/36 30/64/38 33/65/39
f 39/75/45 40/79/48 46/76/46
f 46/76/46 40/79/48 43/82/49
f 49/92/55 50/96/58 56/94/56
f 56/94/56 50/96/58 53/98/59
f 59/107/65 60/110/68 66/108/66
f 66/108/66 60/110/68 63/111/69
f 69/117/75 70/120/78 76/118/76
f 76/118/76 70/120/78 73/121/79
f 79/127/85 80/130/88 86/128/86
f 86/128/86 80/130/88 83/131/89
f 89/137/95 90/140/98 96/138/96
f 96/138/96 90/140/98 93/141/99
f 99/147/105 100/150/108 106/149/107
f 106/149/107 100/150/108 104/151/109
f 14/8/8 15/28/17 18/36/22
f 18/36/22 15/28/17 21/39/24
f 26/44/26 23/48/29 28/56/34
f 28/56/34 23/48/29 31/54/32
f 36/59/36 33/65/39 38/74/44
f 38/74/44 33/65/39 41/69/42
f 46/76/46 43/82/49 48/89/54
f 48/89/54 43/82/49 51/86/52
f 56/94/56 53/98/59 58/106/64
f 58/106/64 53/98/59 61/104/62
f 66/108/66 63/111/69 68/116/74
f 68/116/74 63/111/69 71/114/72
f 76/118/76 73/121/79 78/126/84
f 78/126/84 73/121/79 81/124/82
f 86/128/86 83/131/89 88/136/94
f 88/136/94 83/131/89 91/134/92
f 96/138/96 93/141/99 98/146/104
f 98/146/104 93/141/99 101/144/102
f 92/91/91 84/90/90 94/100/100
f 82/81/81 74/80/80 84/90/90
f 72/71/71 64/70/70 74/80/80
f 62/61/61 54/60/60 64/70/70
f 52/51/51 44/50/50 54/60/60
f 42/41/41 34/40/40 44/50/50
f 32/31/31 24/30/30 34/40/40
f 22/23/23 16/18/18 24/30/30
f 8/16/16 11/19/19 16/18/18
f 11/19/19 2/1/111 16/18/18
f 102/101/101 94/100/100 103/3/110
f 16/18/18 2/1/111 24/30/30
f 24/30/30 2/1/111 34/40/40
f 34/40/40 2/1/111 44/50/50
f 44/50/50 2/1/111 54/60/60
f 54/60/60 2/1/111 64/70/70
f 64/70/70 2/1/111 74/80/80
f 74/80/80 2/1/111 84/90/90
f 84/90/90 2/1/111 94/100/100
f 2/1/111 103/3/110 94/100/100
f 17/21/21 25/27/27 13/10/10
f 27/33/33 35/37/37 25/27/27
f 37/43/43 45/47/47 35/37/37
f 47/53/53 55/57/57 45/47/47
f 57/63/63 65/67/67 55/57/57
f 67/73/73 75/77/77 65/67/67
f 77/83/83 85/87/87 75/77/77
f 87/93/93 95/97/97 85/87/87
f 3/9/9 13/10/10 10/13/13
f 10/13/13 13/10/10 1/2/112
f 97/103/103 105/6/106 95/97/97
f 13/10/10 25/27/27 1/2/112
f 25/27/27 35/37/37 1/2/112
f 35/37/37 45/47/47 1/2/112
f 45/47/47 55/57/57 1/2/112
f 55/57/57 65/67/67 1/2/112
f 65/67/67 75/77/77 1/2/112
f 75/77/77 85/87/87 1/2/112
f 85/87/87 95/97/97 1/2/112
f 95/97/97 105/6/106 1/2/112
f 3/11/9 4/15/11 5/7/7
f 6/24/14 7/25/15 8/26/16
f 17/35/21 18/36/22 19/42/25
f 20/46/28 21/39/24 22/38/23
f 27/55/33 28/56/34 29/58/35
f 30/64/38 31/54/32 32/52/31
f 37/72/43 38/74/44 39/75/45
f 40/79/48 41/69/42 42/68/41
f 47/88/53 48/89/54 49/92/55
f 50/96/58 51/86/52 52/85/51
f 57/105/63 58/106/64 59/107/65
f 60/110/68 61/104/62 62/102/61
f 67/115/73 68/116/74 69/117/75
f 70/120/78 71/114/72 72/113/71
f 77/125/83 78/126/84 79/127/85
f 80/130/88 81/124/82 82/123/81
f 87/135/93 88/136/94 89/137/95
f 90/140/98 91/134/92 92/133/91
f 97/145/103 98/146/104 99/147/105
f 100/150/108 101/144/102 102/143/101
s 11
f 1/2/113 2/1/114 9/12/115
f 9/12/115 2/1/114 12/20/116
s off
f 10/13/117 1/2/118 9/12/119
f 11/19/120 12/20/121 2/1/122
