# This file uses centimeters as units for non-parametric coordinates.

mtllib Stairs.mtl
g default
v -6.000000 0.000000 -2.000000
v 6.000000 0.000000 -2.000000
v -6.000000 0.070003 1.970003
v -5.970003 0.070003 2.000000
v -5.970003 0.100000 1.970003
v 5.970003 0.100000 1.970003
v 5.970003 0.070003 2.000000
v 6.000000 0.070003 1.970003
v -5.970003 0.000000 2.000000
v -6.000000 0.000000 1.970003
v 6.000000 0.000000 1.970003
v 5.970003 0.000000 2.000000
v -6.000000 0.070003 1.570003
v -5.970003 0.100000 1.600000
v 5.970003 0.100000 1.600000
v 6.000000 0.070003 1.570003
v -6.000000 0.170003 1.570003
v -5.970003 0.170003 1.600000
v -5.970003 0.200000 1.570003
v 5.970003 0.200000 1.570003
v 5.970003 0.170003 1.600000
v 6.000000 0.170003 1.570003
v 5.970003 0.200000 1.200000
v 6.000000 0.170003 1.170003
v -6.000000 0.170003 1.170003
v -5.970003 0.200000 1.200000
v -6.000000 0.270003 1.170003
v -5.970003 0.270003 1.200000
v -5.970003 0.300000 1.170003
v 5.970003 0.300000 1.170003
v 5.970003 0.270003 1.200000
v 6.000000 0.270003 1.170003
v 5.970003 0.300000 0.800000
v 6.000000 0.270003 0.770003
v -6.000000 0.270003 0.770003
v -5.970003 0.300000 0.800000
v -6.000000 0.370003 0.770003
v -5.970003 0.370003 0.800000
v -5.970003 0.400000 0.770003
v 5.970003 0.400000 0.770003
v 5.970003 0.370003 0.800000
v 6.000000 0.370003 0.770003
v 5.970003 0.400000 0.400000
v 6.000000 0.370003 0.370003
v -6.000000 0.370003 0.370003
v -5.970003 0.400000 0.400000
v -6.000000 0.470003 0.370003
v -5.970003 0.470003 0.400000
v -5.970003 0.500000 0.370003
v 5.970003 0.500000 0.370003
v 5.970003 0.470003 0.400000
v 6.000000 0.470003 0.370003
v 5.970003 0.500000 0.000000
v 6.000000 0.470003 -0.029997
v -6.000000 0.470003 -0.029997
v -5.970003 0.500000 0.000000
v -6.000000 0.570003 -0.029997
v -5.970003 0.570003 0.000000
v -5.970003 0.600000 -0.029997
v 5.970003 0.600000 -0.029997
v 5.970003 0.570003 0.000000
v 6.000000 0.570003 -0.029997
v 5.970003 0.600000 -0.400000
v 6.000000 0.570003 -0.429997
v -6.000000 0.570003 -0.429997
v -5.970003 0.600000 -0.400000
v -6.000000 0.670003 -0.429997
v -5.970003 0.670003 -0.400000
v -5.970003 0.700000 -0.429997
v 5.970003 0.700000 -0.429997
v 5.970003 0.670003 -0.400000
v 6.000000 0.670003 -0.429997
v 5.970003 0.700000 -0.800000
v 6.000000 0.670003 -0.829997
v -6.000000 0.670003 -0.829997
v -5.970003 0.700000 -0.800000
v -6.000000 0.770003 -0.829997
v -5.970003 0.770003 -0.800000
v -5.970003 0.800000 -0.829997
v 5.970003 0.800000 -0.829997
v 5.970003 0.770003 -0.800000
v 6.000000 0.770003 -0.829997
v 5.970003 0.800000 -1.200000
v 6.000000 0.770003 -1.229997
v -6.000000 0.770003 -1.229997
v -5.970003 0.800000 -1.200000
v -6.000000 0.870003 -1.229997
v -5.970003 0.870003 -1.200000
v -5.970003 0.900000 -1.229997
v 5.970003 0.900000 -1.229997
v 5.970003 0.870003 -1.200000
v 6.000000 0.870003 -1.229997
v 5.970003 0.900000 -1.600000
v 6.000000 0.870003 -1.629997
v -6.000000 0.870003 -1.629997
v -5.970003 0.900000 -1.600000
v -6.000000 0.970003 -1.629997
v -5.970003 0.970003 -1.600000
v -5.970003 1.000000 -1.629997
v 5.970003 1.000000 -1.629997
v 5.970003 0.970003 -1.600000
v 6.000000 0.970003 -1.629997
v 6.000000 0.970003 -2.000000
v 5.970003 1.000000 -2.000000
v -6.000000 0.970003 -2.000000
v -5.970003 1.000000 -2.000000
vt 0.885429 0.474414
vt 0.115659 0.484438
vt 0.947654 0.473603
vt 0.197793 0.919460
vt 0.051501 0.483355
vt 0.053443 0.485251
vt 0.011747 0.015996
vt 0.010743 0.046322
vt 0.114496 0.739160
vt 0.114161 0.713505
vt 0.008509 0.014880
vt 0.120934 0.741003
vt 0.118985 0.739103
vt 0.007092 0.047661
vt 0.011759 0.012530
vt 0.893230 0.729014
vt 0.011660 0.006799
vt 0.892902 0.703364
vt 0.888744 0.729079
vt 0.886846 0.731030
vt 0.107747 0.713589
vt 0.008023 0.007945
vt 0.899323 0.703271
vt 0.983991 0.015372
vt 0.983985 0.011906
vt 0.987199 0.014268
vt 0.107416 0.687930
vt 0.984926 0.045638
vt 0.988578 0.047004
vt 0.898984 0.677622
vt 0.905400 0.677536
vt 0.987960 0.007333
vt 0.101002 0.688014
vt 0.984082 0.006176
vt 0.007817 0.054432
vt 0.010931 0.052049
vt 0.100668 0.662359
vt 0.987849 0.053752
vt 0.984732 0.051366
vt 0.905066 0.651881
vt 0.911482 0.651794
vt 0.010952 0.055515
vt 0.094251 0.662434
vt 0.010099 0.085846
vt 0.006447 0.087225
vt 0.984714 0.054830
vt 0.093916 0.636779
vt 0.985538 0.085101
vt 0.989191 0.086497
vt 0.911148 0.626139
vt 0.917564 0.626052
vt 0.988449 0.093219
vt 0.087503 0.636863
vt 0.985336 0.090827
vt 0.007192 0.093967
vt 0.010299 0.091573
vt 0.087170 0.611205
vt 0.010327 0.095039
vt 0.009528 0.125372
vt 0.917228 0.600386
vt 0.923635 0.600312
vt 0.005878 0.126762
vt 0.080751 0.611283
vt 0.985314 0.094292
vt 0.986109 0.124562
vt 0.989760 0.125962
vt 0.080410 0.585623
vt 0.989017 0.132680
vt 0.985906 0.130288
vt 0.923304 0.574640
vt 0.929716 0.574570
vt 0.006629 0.133500
vt 0.074003 0.585712
vt 0.009734 0.131099
vt 0.009766 0.134566
vt 0.009005 0.164900
vt 0.073672 0.560053
vt 0.005356 0.166299
vt 0.985883 0.133752
vt 0.929387 0.548909
vt 0.935810 0.548827
vt 0.986662 0.164022
vt 0.067257 0.560138
vt 0.990313 0.165422
vt 0.989571 0.172139
vt 0.986459 0.169748
vt 0.066917 0.534477
vt 0.006111 0.173034
vt 0.009214 0.170628
vt 0.935474 0.523161
vt 0.941885 0.523081
vt 0.009249 0.174094
vt 0.060503 0.534561
vt 0.008515 0.204430
vt 0.004868 0.205834
vt 0.986436 0.173212
vt 0.060177 0.508908
vt 0.987212 0.203481
vt 0.990862 0.204880
vt 0.941556 0.497420
vt 0.947956 0.497340
vt 0.990124 0.211596
vt 0.053758 0.508986
vt 0.987013 0.209207
vt 0.005624 0.212567
vt 0.008726 0.210157
vt 0.008762 0.213624
vt 0.008044 0.243960
vt 0.004397 0.245367
vt 0.986990 0.212671
vt 0.987774 0.242940
vt 0.991425 0.244336
vt 0.990693 0.251052
vt 0.987580 0.248667
vt 0.005152 0.252098
vt 0.008254 0.249687
vt 0.008291 0.253153
vt 0.007577 0.283489
vt 0.003930 0.284897
vt 0.987560 0.252131
vt 0.988363 0.282400
vt 0.992013 0.283791
vt 0.991290 0.290506
vt 0.988175 0.288127
vt 0.004681 0.291626
vt 0.007784 0.289216
vt 0.007820 0.292682
vt 0.007099 0.323016
vt 0.003452 0.324424
vt 0.988159 0.291592
vt 0.988991 0.321861
vt 0.992643 0.323244
vt 0.991932 0.329966
vt 0.988812 0.327589
vt 0.004196 0.331157
vt 0.007303 0.328743
vt 0.007336 0.332210
vt 0.006616 0.362542
vt 0.002968 0.363960
vt 0.988800 0.331053
vt 0.989656 0.361325
vt 0.993309 0.362710
vt 0.992642 0.369517
vt 0.989473 0.367052
vt 0.003701 0.370765
vt 0.006826 0.368267
vt 0.006868 0.371733
vt 0.003007 0.401831
vt 0.006535 0.402065
vt 0.989453 0.370516
vt 0.989971 0.400817
vt 0.993458 0.400519
vt 0.197308 0.917980
vt 0.197089 0.918985
vt 0.080863 0.917860
vt 0.082096 0.908198
vt 0.081092 0.905416
vt 0.080863 0.905072
vt 0.080863 0.904649
vt 0.082688 0.895383
vn 0.000000 0.000000 -1.000000
vn 0.000000 0.000000 -1.000000
vn 0.000000 0.000000 -1.000000
vn 0.000000 0.000000 -1.000000
vn 0.000000 0.000000 -1.000000
vn 0.000000 0.000000 -1.000000
vn -0.002437 0.997201 0.074725
vn -0.004542 0.982530 0.186049
vn -0.960864 0.270002 0.061963
vn -0.999929 0.011547 0.002884
vn -0.002161 0.287167 0.957878
vn -0.002506 0.000000 0.999997
vn -0.999338 0.000007 0.036391
vn 0.002437 0.997201 0.074725
vn 0.002161 0.287168 0.957878
vn 0.960864 0.270002 0.061963
vn 0.004542 0.982530 0.186048
vn 0.999929 0.011546 0.002884
vn 0.999338 0.000006 0.036391
vn 0.002506 0.000000 0.999997
vn -0.975787 0.211888 0.054247
vn -0.002161 0.287168 0.957878
vn 0.975787 0.211888 0.054247
vn 0.002161 0.287167 0.957878
vn -0.002437 0.997201 0.074725
vn -0.004542 0.982530 0.186049
vn -0.999958 0.008908 0.002227
vn 0.002437 0.997201 0.074725
vn 0.004542 0.982530 0.186048
vn 0.999958 0.008907 0.002227
vn 0.975787 0.211888 0.054247
vn 0.002161 0.287167 0.957878
vn -0.975787 0.211888 0.054247
vn -0.002161 0.287168 0.957878
vn -0.002437 0.997201 0.074725
vn -0.004542 0.982530 0.186049
vn -0.999958 0.008908 0.002227
vn 0.002437 0.997201 0.074725
vn 0.004542 0.982530 0.186047
vn 0.999958 0.008907 0.002227
vn 0.975786 0.211896 0.054247
vn 0.002161 0.287167 0.957878
vn -0.975786 0.211896 0.054247
vn -0.002161 0.287168 0.957878
vn -0.002437 0.997201 0.074725
vn -0.004542 0.982530 0.186049
vn -0.999958 0.008908 0.002227
vn 0.002437 0.997201 0.074725
vn 0.004542 0.982530 0.186048
vn 0.999958 0.008907 0.002227
vn 0.975786 0.211896 0.054247
vn 0.002161 0.287166 0.957878
vn -0.975786 0.211896 0.054247
vn -0.002161 0.287168 0.957878
vn -0.002437 0.997201 0.074725
vn -0.004542 0.982530 0.186049
vn -0.999958 0.008907 0.002227
vn 0.002437 0.997201 0.074725
vn 0.004542 0.982530 0.186048
vn 0.999958 0.008910 0.002227
vn 0.975786 0.211896 0.054247
vn 0.002161 0.287167 0.957878
vn -0.975786 0.211896 0.054247
vn -0.002161 0.287169 0.957878
vn -0.002437 0.997201 0.074725
vn -0.004542 0.982530 0.186049
vn -0.999958 0.008904 0.002227
vn 0.002437 0.997201 0.074725
vn 0.004542 0.982530 0.186048
vn 0.999958 0.008906 0.002227
vn 0.975786 0.211896 0.054247
vn 0.002161 0.287167 0.957878
vn -0.975786 0.211896 0.054247
vn -0.002161 0.287168 0.957878
vn -0.002437 0.997201 0.074725
vn -0.004542 0.982530 0.186049
vn -0.999958 0.008905 0.002227
vn 0.002437 0.997201 0.074725
vn 0.004542 0.982530 0.186048
vn 0.999958 0.008907 0.002227
vn 0.975787 0.211888 0.054247
vn 0.002161 0.287167 0.957878
vn -0.975787 0.211888 0.054247
vn -0.002161 0.287168 0.957878
vn -0.002437 0.997201 0.074725
vn -0.004542 0.982530 0.186049
vn -0.999958 0.008908 0.002227
vn 0.002437 0.997201 0.074725
vn 0.004542 0.982530 0.186048
vn 0.999958 0.008909 0.002227
vn 0.975787 0.211888 0.054247
vn 0.002161 0.287166 0.957878
vn -0.975787 0.211888 0.054247
vn -0.002161 0.287168 0.957878
vn -0.002437 0.997201 0.074725
vn -0.004542 0.982530 0.186049
vn -0.999955 0.009156 0.002289
vn 0.002437 0.997201 0.074725
vn 0.004542 0.982530 0.186048
vn 0.999955 0.009156 0.002289
vn 0.973187 0.222751 0.057347
vn 0.002161 0.287167 0.957878
vn -0.973187 0.222751 0.057347
vn -0.002161 0.287168 0.957878
vn -0.002437 0.997201 0.074725
vn -0.999384 0.035111 0.000000
vn -0.002506 0.999997 0.000000
vn 0.002437 0.997201 0.074725
vn 0.002506 0.999997 0.000000
vn 0.999384 0.035111 0.000000
vn 1.000000 -0.000000 0.000000
vn -1.000000 -0.000001 0.000000
vn 0.000000 -1.000000 0.000000
vn 0.000000 -1.000000 0.000000
vn 0.000000 -1.000000 0.000000
vn 0.000000 -1.000000 0.000000
vn 0.000000 -1.000000 0.000000
vn 0.000000 -1.000000 0.000000
vn 0.000000 -1.000000 0.000000
vn 0.000000 -1.000000 0.000000
vn 0.000000 -1.000000 0.000000
vn 0.000000 -1.000000 0.000000
s 1
g pCube1
usemtl initialShadingGroup
f 2/160/1 1/153/2 103/159/3
f 103/158/3 1/154/2 104/157/4
f 104/4/4 1/155/2 106/156/5
f 1/2/2 105/6/6 106/5/5
s 2
f 5/7/7 14/8/8 3/11/9
f 3/11/9 14/8/8 13/14/10
f 4/15/11 3/11/9 9/17/12
f 9/17/12 3/11/9 10/22/13
f 5/7/7 4/15/11 6/24/14
f 6/24/14 4/15/11 7/25/15
f 6/24/14 8/26/16 15/28/17
f 15/28/17 8/26/16 16/29/18
f 8/26/16 7/25/15 11/32/19
f 11/32/19 7/25/15 12/34/20
f 13/14/10 14/8/8 17/35/21
f 17/35/21 14/8/8 18/36/22
f 16/29/18 22/38/23 15/28/17
f 15/28/17 22/38/23 21/39/24
f 19/42/25 26/44/26 17/35/21
f 17/35/21 26/44/26 25/45/27
f 19/42/25 18/36/22 20/46/28
f 20/46/28 18/36/22 21/39/24
f 20/46/28 22/38/23 23/48/29
f 23/48/29 22/38/23 24/49/30
f 24/49/30 32/52/31 23/48/29
f 23/48/29 32/52/31 31/54/32
f 25/45/27 26/44/26 27/55/33
f 27/55/33 26/44/26 28/56/34
f 29/58/35 36/59/36 27/55/33
f 27/55/33 36/59/36 35/62/37
f 29/58/35 28/56/34 30/64/38
f 30/64/38 28/56/34 31/54/32
f 30/64/38 32/52/31 33/65/39
f 33/65/39 32/52/31 34/66/40
f 34/66/40 42/68/41 33/65/39
f 33/65/39 42/68/41 41/69/42
f 35/62/37 36/59/36 37/72/43
f 37/72/43 36/59/36 38/74/44
f 39/75/45 46/76/46 37/72/43
f 37/72/43 46/76/46 45/78/47
f 39/75/45 38/74/44 40/79/48
f 40/79/48 38/74/44 41/69/42
f 40/79/48 42/68/41 43/82/49
f 43/82/49 42/68/41 44/84/50
f 44/84/50 52/85/51 43/82/49
f 43/82/49 52/85/51 51/86/52
f 45/78/47 46/76/46 47/88/53
f 47/88/53 46/76/46 48/89/54
f 49/92/55 56/94/56 47/88/53
f 47/88/53 56/94/56 55/95/57
f 49/92/55 48/89/54 50/96/58
f 50/96/58 48/89/54 51/86/52
f 50/96/58 52/85/51 53/98/59
f 53/98/59 52/85/51 54/99/60
f 54/99/60 62/102/61 53/98/59
f 53/98/59 62/102/61 61/104/62
f 55/95/57 56/94/56 57/105/63
f 57/105/63 56/94/56 58/106/64
f 59/107/65 66/108/66 57/105/63
f 57/105/63 66/108/66 65/109/67
f 59/107/65 58/106/64 60/110/68
f 60/110/68 58/106/64 61/104/62
f 60/110/68 62/102/61 63/111/69
f 63/111/69 62/102/61 64/112/70
f 64/112/70 72/113/71 63/111/69
f 63/111/69 72/113/71 71/114/72
f 65/109/67 66/108/66 67/115/73
f 67/115/73 66/108/66 68/116/74
f 69/117/75 76/118/76 67/115/73
f 67/115/73 76/118/76 75/119/77
f 69/117/75 68/116/74 70/120/78
f 70/120/78 68/116/74 71/114/72
f 70/120/78 72/113/71 73/121/79
f 73/121/79 72/113/71 74/122/80
f 74/122/80 82/123/81 73/121/79
f 73/121/79 82/123/81 81/124/82
f 75/119/77 76/118/76 77/125/83
f 77/125/83 76/118/76 78/126/84
f 79/127/85 86/128/86 77/125/83
f 77/125/83 86/128/86 85/129/87
f 79/127/85 78/126/84 80/130/88
f 80/130/88 78/126/84 81/124/82
f 80/130/88 82/123/81 83/131/89
f 83/131/89 82/123/81 84/132/90
f 84/132/90 92/133/91 83/131/89
f 83/131/89 92/133/91 91/134/92
f 85/129/87 86/128/86 87/135/93
f 87/135/93 86/128/86 88/136/94
f 89/137/95 96/138/96 87/135/93
f 87/135/93 96/138/96 95/139/97
f 89/137/95 88/136/94 90/140/98
f 90/140/98 88/136/94 91/134/92
f 90/140/98 92/133/91 93/141/99
f 93/141/99 92/133/91 94/142/100
f 94/142/100 102/143/101 93/141/99
f 93/141/99 102/143/101 101/144/102
f 95/139/97 96/138/96 97/145/103
f 97/145/103 96/138/96 98/146/104
f 97/145/103 99/147/105 105/148/106
f 105/148/106 99/147/105 106/149/107
f 99/147/105 98/146/104 100/150/108
f 100/150/108 98/146/104 101/144/102
f 100/150/108 102/143/101 104/151/109
f 104/151/109 102/143/101 103/152/110
f 4/15/11 9/17/12 7/25/15
f 7/25/15 9/17/12 12/34/20
f 5/7/7 6/24/14 14/8/8
f 14/8/8 6/24/14 15/28/17
f 19/42/25 20/46/28 26/44/26
f 26/44/26 20/46/28 23/48/29
f 29/58/35 30/64/38 36/59/36
f 36/59/36 30/64/38 33/65/39
f 39/75/45 40/79/48 46/76/46
f 46/76/46 40/79/48 43/82/49
f 49/92/55 50/96/58 56/94/56
f 56/94/56 50/96/58 53/98/59
f 59/107/65 60/110/68 66/108/66
f 66/108/66 60/110/68 63/111/69
f 69/117/75 70/120/78 76/118/76
f 76/118/76 70/120/78 73/121/79
f 79/127/85 80/130/88 86/128/86
f 86/128/86 80/130/88 83/131/89
f 89/137/95 90/140/98 96/138/96
f 96/138/96 90/140/98 93/141/99
f 99/147/105 100/150/108 106/149/107
f 106/149/107 100/150/108 104/151/109
f 14/8/8 15/28/17 18/36/22
f 18/36/22 15/28/17 21/39/24
f 26/44/26 23/48/29 28/56/34
f 28/56/34 23/48/29 31/54/32
f 36/59/36 33/65/39 38/74/44
f 38/74/44 33/65/39 41/69/42
f 46/76/46 43/82/49 48/89/54
f 48/89/54 43/82/49 51/86/52
f 56/94/56 53/98/59 58/106/64
f 58/106/64 53/98/59 61/104/62
f 66/108/66 63/111/69 68/116/74
f 68/116/74 63/111/69 71/114/72
f 76/118/76 73/121/79 78/126/84
f 78/126/84 73/121/79 81/124/82
f 86/128/86 83/131/89 88/136/94
f 88/136/94 83/131/89 91/134/92
f 96/138/96 93/141/99 98/146/104
f 98/146/104 93/141/99 101/144/102
f 92/91/91 84/90/90 94/100/100
f 82/81/81 74/80/80 84/90/90
f 72/71/71 64/70/70 74/80/80
f 62/61/61 54/60/60 64/70/70
f 52/51/51 44/50/50 54/60/60
f 42/41/41 34/40/40 44/50/50
f 32/31/31 24/30/30 34/40/40
f 22/23/23 16/18/18 24/30/30
f 8/16/16 11/19/19 16/18/18
f 11/19/19 2/1/111 16/18/18
f 102/101/101 94/100/100 103/3/110
f 16/18/18 2/1/111 24/30/30
f 24/30/30 2/1/111 34/40/40
f 34/40/40 2/1/111 44/50/50
f 44/50/50 2/1/111 54/60/60
f 54/60/60 2/1/111 64/70/70
f 64/70/70 2/1/111 74/80/80
f 74/80/80 2/1/111 84/90/90
f 84/90/90 2/1/111 94/100/100
f 2/1/111 103/3/110 94/100/100
f 17/21/21 25/27/27 13/10/10
f 27/33/33 35/37/37 25/27/27
f 37/43/43 45/47/47 35/37/37
f 47/53/53 55/57/57 45/47/47
f 57/63/63 65/67/67 55/57/57
f 67/73/73 75/77/77 65/67/67
f 77/83/83 85/87/87 75/77/77
f 87/93/93 95/97/97 85/87/87
f 3/9/9 13/10/10 10/13/13
f 10/13/13 13/10/10 1/2/112
f 97/103/103 105/6/106 95/97/97
f 13/10/10 25/27/27 1/2/112
f 25/27/27 35/37/37 1/2/112
f 35/37/37 45/47/47 1/2/112
f 45/47/47 55/57/57 1/2/112
f 55/57/57 65/67/67 1/2/112
f 65/67/67 75/77/77 1/2/112
f 75/77/77 85/87/87 1/2/112
f 85/87/87 95/97/97 1/2/112
f 95/97/97 105/6/106 1/2/112
f 3/11/9 4/15/11 5/7/7
f 6/24/14 7/25/15 8/26/16
f 17/35/21 18/36/22 19/42/25
f 20/46/28 21/39/24 22/38/23
f 27/55/33 28/56/34 29/58/35
f 30/64/38 31/54/32 32/52/31
f 37/72/43 38/74/44 39/75/45
f 40/79/48 41/69/42 42/68/41
f 47/88/53 48/89/54 49/92/55
f 50/96/58 51/86/52 52/85/51
f 57/105/63 58/106/64 59/107/65
f 60/110/68 61/104/62 62/102/61
f 67/115/73 68/116/74 69/117/75
f 70/120/78 71/114/72 72/113/71
f 77/125/83 78/126/84 79/127/85
f 80/130/88 81/124/82 82/123/81
f 87/135/93 88/136/94 89/137/95
f 90/140/98 91/134/92 92/133/91
f 97/145/103 98/146/104 99/147/105
f 100/150/108 101/144/102 102/143/101
s 11
f 1/2/113 2/1/114 9/12/115
f 9/12/115 2/1/114 12/20/116
s off
f 10/13/117 1/2/118 9/12/119
f 11/19/120 12/20/121 2/1/122
